G04*
G04 #@! TF.GenerationSoftware,Altium Limited,Altium Designer,18.1.9 (240)*
G04*
G04 Layer_Color=8421504*
%FSLAX43Y43*%
%MOMM*%
G71*
G01*
G75*
%ADD15R,0.900X1.700*%
%ADD16R,0.710X0.260*%
%ADD17R,0.900X0.900*%
G36*
X1281Y17460D02*
X720D01*
Y18542D01*
X1281D01*
Y17460D01*
D02*
G37*
G36*
Y27460D02*
X720D01*
Y28542D01*
X1281D01*
Y27460D01*
D02*
G37*
G36*
Y37460D02*
X720D01*
Y38542D01*
X1281D01*
Y37460D01*
D02*
G37*
D15*
X1000Y18000D02*
D03*
Y28000D02*
D03*
Y38000D02*
D03*
D16*
X-5Y17250D02*
D03*
Y17750D02*
D03*
Y18250D02*
D03*
Y18750D02*
D03*
X2005D02*
D03*
Y18250D02*
D03*
Y17750D02*
D03*
Y17250D02*
D03*
X-5Y27250D02*
D03*
Y27750D02*
D03*
Y28250D02*
D03*
Y28750D02*
D03*
X2005D02*
D03*
Y28250D02*
D03*
Y27750D02*
D03*
Y27250D02*
D03*
X-5Y37250D02*
D03*
Y37750D02*
D03*
Y38250D02*
D03*
Y38750D02*
D03*
X2005D02*
D03*
Y38250D02*
D03*
Y37750D02*
D03*
Y37250D02*
D03*
D17*
X1750Y13450D02*
D03*
Y15050D02*
D03*
X-2250Y14950D02*
D03*
Y16550D02*
D03*
X1750Y23200D02*
D03*
Y24800D02*
D03*
X-2000Y25200D02*
D03*
Y26800D02*
D03*
X1750Y33200D02*
D03*
Y34800D02*
D03*
X-2750Y34950D02*
D03*
Y36550D02*
D03*
M02*
