G04*
G04 #@! TF.GenerationSoftware,Altium Limited,Altium Designer,18.1.9 (240)*
G04*
G04 Layer_Physical_Order=2*
G04 Layer_Color=16711680*
%FSLAX43Y43*%
%MOMM*%
G71*
G01*
G75*
%ADD26C,0.254*%
%ADD27C,0.250*%
%ADD28C,1.600*%
%ADD29P,2.263X4X165.0*%
%ADD30C,1.524*%
%ADD31P,2.263X4X105.0*%
%ADD32C,3.500*%
%ADD33C,0.600*%
%ADD34C,0.500*%
%ADD35C,0.500*%
G36*
X9000Y57308D02*
X9000Y54141D01*
Y29386D01*
X8800Y29185D01*
X-2112D01*
X-2138Y29203D01*
Y29330D01*
X-2103Y29353D01*
X-1982Y29535D01*
X-1939Y29750D01*
X-1982Y29965D01*
X-2103Y30147D01*
X-2285Y30268D01*
X-2500Y30311D01*
X-2715Y30268D01*
X-2897Y30147D01*
X-3018Y29965D01*
X-3047Y29819D01*
X-3326Y29539D01*
X-3485Y29560D01*
X-3567Y29683D01*
X-3766Y29815D01*
X-3999Y29861D01*
X-4342Y30204D01*
Y41551D01*
X-4317Y41567D01*
X-4185Y41766D01*
X-4138Y42000D01*
X-4185Y42234D01*
X-4317Y42433D01*
X-4516Y42565D01*
X-4750Y42612D01*
X-4984Y42565D01*
X-5183Y42433D01*
X-5315Y42234D01*
X-5362Y42000D01*
X-5315Y41766D01*
X-5208Y41606D01*
Y30025D01*
Y19025D01*
X-5175Y18859D01*
X-5081Y18719D01*
X-4861Y18499D01*
X-4815Y18266D01*
X-4683Y18067D01*
X-4484Y17935D01*
X-4250Y17888D01*
X-4016Y17935D01*
X-3817Y18067D01*
X-3685Y18266D01*
X-3638Y18500D01*
X-3685Y18734D01*
X-3817Y18933D01*
X-4016Y19065D01*
X-4249Y19111D01*
X-4342Y19204D01*
Y28559D01*
X-4215Y28622D01*
X-4152Y28577D01*
X-4162Y28523D01*
Y28082D01*
X-4129Y27915D01*
X-4035Y27774D01*
X-3726Y27465D01*
X-3585Y27371D01*
X-3418Y27338D01*
X9000D01*
Y22635D01*
X-1300D01*
X-1467Y22602D01*
X-1608Y22508D01*
X-2819Y21297D01*
X-2965Y21268D01*
X-3147Y21147D01*
X-3268Y20965D01*
X-3311Y20750D01*
X-3268Y20535D01*
X-3147Y20353D01*
X-2965Y20232D01*
X-2750Y20189D01*
X-2535Y20232D01*
X-2353Y20353D01*
X-2232Y20535D01*
X-2203Y20681D01*
X-1120Y21765D01*
X9000D01*
Y141D01*
X9000Y-2308D01*
X8890Y-2372D01*
X2758Y1169D01*
X2758Y1169D01*
X-5805Y6113D01*
X-5805Y48887D01*
X2758Y53831D01*
X8890Y57371D01*
X9000Y57308D01*
D02*
G37*
G36*
X23202Y65531D02*
X30555Y52792D01*
Y49061D01*
X30575Y48962D01*
X30631Y48878D01*
X33805Y45704D01*
Y16000D01*
X33805Y9296D01*
X30631Y6122D01*
X30603Y6081D01*
X30575Y6038D01*
X30575Y6038D01*
X30575Y6038D01*
X30565Y5989D01*
X30555Y5939D01*
X30554Y2204D01*
X23202Y-10531D01*
X23079Y-10564D01*
X9500Y-2724D01*
Y2689D01*
X22262Y2689D01*
X22289Y2623D01*
X22465Y2393D01*
X22695Y2217D01*
X22963Y2106D01*
X23250Y2069D01*
X23537Y2106D01*
X23805Y2217D01*
X24035Y2393D01*
X24211Y2623D01*
X24322Y2891D01*
X24359Y3178D01*
X24322Y3465D01*
X24211Y3733D01*
X24035Y3963D01*
X23805Y4139D01*
X23537Y4250D01*
X23250Y4287D01*
X22963Y4250D01*
X22695Y4139D01*
X22465Y3963D01*
X22349Y3811D01*
X9500Y3811D01*
Y21559D01*
X9598Y21640D01*
X9600Y21639D01*
X9815Y21682D01*
X9997Y21803D01*
X10118Y21985D01*
X10147Y22131D01*
X14478Y26462D01*
X14573Y26604D01*
X14606Y26770D01*
Y51203D01*
X18368Y54966D01*
X18544Y54893D01*
X18831Y54855D01*
X19118Y54893D01*
X19386Y55004D01*
X19616Y55180D01*
X19792Y55410D01*
X19903Y55677D01*
X19941Y55964D01*
X19903Y56252D01*
X19792Y56519D01*
X19616Y56749D01*
X19386Y56925D01*
X19118Y57036D01*
X18831Y57074D01*
X18544Y57036D01*
X18277Y56925D01*
X18047Y56749D01*
X17870Y56519D01*
X17760Y56252D01*
X17722Y55964D01*
X17760Y55677D01*
X17786Y55615D01*
X13862Y51692D01*
X13768Y51550D01*
X13735Y51384D01*
Y26951D01*
X9627Y22843D01*
X9500Y22895D01*
Y27338D01*
X9644D01*
X9680Y27345D01*
X9715Y27338D01*
X9882Y27371D01*
X10023Y27465D01*
X12447Y29889D01*
X12449Y29888D01*
X12683Y29935D01*
X12882Y30067D01*
X13014Y30266D01*
X13061Y30500D01*
X13014Y30734D01*
X12882Y30933D01*
X12683Y31065D01*
X12449Y31112D01*
X12260Y31074D01*
X12214Y31185D01*
X12413Y31317D01*
X12545Y31516D01*
X12592Y31750D01*
X12545Y31984D01*
X12413Y32183D01*
X12214Y32315D01*
X11980Y32362D01*
X11746Y32315D01*
X11547Y32183D01*
X11415Y31984D01*
X11369Y31755D01*
X9617Y30003D01*
X9500Y30052D01*
Y57724D01*
X23079Y65564D01*
X23202Y65531D01*
D02*
G37*
%LPC*%
G36*
X5356Y52882D02*
X4954Y52842D01*
X4568Y52725D01*
X4212Y52535D01*
X3899Y52279D01*
X3643Y51966D01*
X3453Y51610D01*
X3336Y51224D01*
X3296Y50822D01*
X3336Y50420D01*
X3453Y50034D01*
X3643Y49678D01*
X3899Y49365D01*
X4212Y49109D01*
X4568Y48919D01*
X4954Y48802D01*
X5356Y48762D01*
X5758Y48802D01*
X6144Y48919D01*
X6500Y49109D01*
X6813Y49365D01*
X7069Y49678D01*
X7259Y50034D01*
X7376Y50420D01*
X7416Y50822D01*
X7376Y51224D01*
X7259Y51610D01*
X7069Y51966D01*
X6813Y52279D01*
X6500Y52535D01*
X6144Y52725D01*
X5758Y52842D01*
X5356Y52882D01*
D02*
G37*
G36*
Y5238D02*
X4954Y5198D01*
X4568Y5081D01*
X4212Y4891D01*
X3899Y4635D01*
X3643Y4322D01*
X3453Y3966D01*
X3336Y3580D01*
X3296Y3178D01*
X3336Y2776D01*
X3453Y2390D01*
X3643Y2034D01*
X3899Y1721D01*
X4212Y1465D01*
X4568Y1275D01*
X4954Y1158D01*
X5356Y1118D01*
X5758Y1158D01*
X6144Y1275D01*
X6500Y1465D01*
X6813Y1721D01*
X7069Y2034D01*
X7259Y2390D01*
X7376Y2776D01*
X7416Y3178D01*
X7376Y3580D01*
X7259Y3966D01*
X7069Y4322D01*
X6813Y4635D01*
X6500Y4891D01*
X6144Y5081D01*
X5758Y5198D01*
X5356Y5238D01*
D02*
G37*
G36*
X21031Y58344D02*
X20744Y58306D01*
X20476Y58195D01*
X20246Y58019D01*
X20070Y57789D01*
X19959Y57522D01*
X19922Y57234D01*
X19959Y56947D01*
X20070Y56680D01*
X20246Y56450D01*
X20476Y56274D01*
X20744Y56163D01*
X21031Y56125D01*
X21318Y56163D01*
X21586Y56274D01*
X21816Y56450D01*
X21992Y56680D01*
X22103Y56947D01*
X22140Y57234D01*
X22103Y57522D01*
X21992Y57789D01*
X21816Y58019D01*
X21586Y58195D01*
X21318Y58306D01*
X21031Y58344D01*
D02*
G37*
G36*
X22301Y56144D02*
X22014Y56106D01*
X21746Y55996D01*
X21516Y55819D01*
X21340Y55589D01*
X21229Y55322D01*
X21192Y55035D01*
X21229Y54748D01*
X21340Y54480D01*
X21516Y54250D01*
X21746Y54074D01*
X22014Y53963D01*
X22301Y53925D01*
X22588Y53963D01*
X22856Y54074D01*
X23086Y54250D01*
X23262Y54480D01*
X23373Y54748D01*
X23410Y55035D01*
X23373Y55322D01*
X23262Y55589D01*
X23086Y55819D01*
X22856Y55996D01*
X22588Y56106D01*
X22301Y56144D01*
D02*
G37*
G36*
X20101Y54874D02*
X19814Y54836D01*
X19547Y54726D01*
X19317Y54549D01*
X19140Y54319D01*
X19030Y54052D01*
X18992Y53765D01*
X19030Y53478D01*
X19056Y53415D01*
X15481Y49840D01*
X15386Y49699D01*
X15353Y49532D01*
Y25422D01*
X11542Y21611D01*
X11313Y21565D01*
X11115Y21433D01*
X10982Y21234D01*
X10936Y21000D01*
X10982Y20766D01*
X11115Y20567D01*
X11313Y20435D01*
X11547Y20388D01*
X11782Y20435D01*
X11980Y20567D01*
X12113Y20766D01*
X12158Y20995D01*
X16096Y24933D01*
X16191Y25075D01*
X16224Y25241D01*
Y49352D01*
X19638Y52766D01*
X19814Y52693D01*
X20101Y52655D01*
X20388Y52693D01*
X20656Y52804D01*
X20886Y52980D01*
X21062Y53210D01*
X21173Y53478D01*
X21211Y53765D01*
X21173Y54052D01*
X21062Y54319D01*
X20886Y54549D01*
X20656Y54726D01*
X20388Y54836D01*
X20101Y54874D01*
D02*
G37*
G36*
X23571Y53944D02*
X23284Y53907D01*
X23016Y53796D01*
X22786Y53620D01*
X22610Y53390D01*
X22499Y53122D01*
X22462Y52835D01*
X22499Y52548D01*
X22610Y52280D01*
X22786Y52050D01*
X23016Y51874D01*
X23284Y51763D01*
X23571Y51726D01*
X23858Y51763D01*
X24126Y51874D01*
X24356Y52050D01*
X24532Y52280D01*
X24643Y52548D01*
X24681Y52835D01*
X24643Y53122D01*
X24532Y53390D01*
X24356Y53620D01*
X24126Y53796D01*
X23858Y53907D01*
X23571Y53944D01*
D02*
G37*
G36*
X26111Y49495D02*
X25837Y49459D01*
X25698Y49401D01*
X26157Y48606D01*
X26951Y49065D01*
X26860Y49184D01*
X26641Y49353D01*
X26385Y49459D01*
X26111Y49495D01*
D02*
G37*
G36*
X27076Y48849D02*
X26282Y48390D01*
X26741Y47595D01*
X26860Y47687D01*
X27028Y47906D01*
X27134Y48161D01*
X27170Y48436D01*
X27134Y48710D01*
X27076Y48849D01*
D02*
G37*
G36*
X21371Y52674D02*
X21084Y52637D01*
X20817Y52526D01*
X20587Y52350D01*
X20410Y52120D01*
X20300Y51852D01*
X20262Y51565D01*
X20300Y51278D01*
X20410Y51010D01*
X20587Y50780D01*
X20817Y50604D01*
X20956Y50546D01*
Y36457D01*
X18391Y33892D01*
X18162Y33846D01*
X17964Y33714D01*
X17831Y33515D01*
X17785Y33281D01*
X17831Y33047D01*
X17964Y32849D01*
X18162Y32716D01*
X18311Y32686D01*
X18370Y32545D01*
X18329Y32484D01*
X18282Y32250D01*
X18329Y32016D01*
X18461Y31817D01*
X18660Y31685D01*
X18894Y31638D01*
X19128Y31685D01*
X19326Y31817D01*
X19459Y32016D01*
X19505Y32245D01*
X22849Y35590D01*
X22944Y35731D01*
X22977Y35898D01*
Y46339D01*
X23100Y46372D01*
X23509Y45663D01*
X24736Y46371D01*
X24846Y46308D01*
Y32461D01*
X24515Y32131D01*
X24286Y32085D01*
X24087Y31953D01*
X23955Y31754D01*
X23908Y31520D01*
X23955Y31286D01*
X24087Y31087D01*
X24286Y30955D01*
X24520Y30908D01*
X24754Y30955D01*
X24953Y31087D01*
X25085Y31286D01*
X25131Y31515D01*
X25589Y31973D01*
X25683Y32115D01*
X25716Y32281D01*
Y47348D01*
X25810Y47411D01*
X25843Y47412D01*
X26111Y47377D01*
X26385Y47413D01*
X26524Y47470D01*
X26003Y48373D01*
X25481Y49276D01*
X25403Y49216D01*
X25276Y49271D01*
Y49625D01*
X25396Y49674D01*
X25626Y49851D01*
X25802Y50081D01*
X25913Y50348D01*
X25951Y50635D01*
X25913Y50922D01*
X25802Y51190D01*
X25626Y51420D01*
X25396Y51596D01*
X25128Y51707D01*
X24841Y51745D01*
X24554Y51707D01*
X24286Y51596D01*
X24056Y51420D01*
X23880Y51190D01*
X23769Y50922D01*
X23732Y50635D01*
X23769Y50348D01*
X23880Y50081D01*
X24056Y49851D01*
X24286Y49674D01*
X24406Y49625D01*
Y48693D01*
X24314Y48668D01*
X24204Y48605D01*
X23087Y47960D01*
X22977Y48023D01*
Y48314D01*
X23196Y48404D01*
X23426Y48581D01*
X23602Y48811D01*
X23713Y49078D01*
X23751Y49365D01*
X23713Y49652D01*
X23602Y49920D01*
X23426Y50150D01*
X23196Y50326D01*
X22928Y50437D01*
X22641Y50475D01*
X22354Y50437D01*
X22087Y50326D01*
X21954Y50224D01*
X21827Y50287D01*
Y50563D01*
X21926Y50604D01*
X22156Y50780D01*
X22332Y51010D01*
X22443Y51278D01*
X22481Y51565D01*
X22443Y51852D01*
X22332Y52120D01*
X22156Y52350D01*
X21926Y52526D01*
X21658Y52637D01*
X21371Y52674D01*
D02*
G37*
G36*
X17500Y40091D02*
X17223Y40055D01*
X16964Y39948D01*
X16743Y39777D01*
X16572Y39556D01*
X16465Y39297D01*
X16429Y39020D01*
X16465Y38743D01*
X16572Y38484D01*
X16743Y38263D01*
X16964Y38092D01*
X17223Y37985D01*
X17500Y37949D01*
X17777Y37985D01*
X18036Y38092D01*
X18257Y38263D01*
X18428Y38484D01*
X18535Y38743D01*
X18571Y39020D01*
X18535Y39297D01*
X18428Y39556D01*
X18257Y39777D01*
X18036Y39948D01*
X17777Y40055D01*
X17500Y40091D01*
D02*
G37*
G36*
Y37551D02*
X17223Y37515D01*
X16964Y37408D01*
X16743Y37237D01*
X16572Y37016D01*
X16465Y36757D01*
X16429Y36480D01*
X16465Y36203D01*
X16572Y35944D01*
X16743Y35723D01*
X16964Y35552D01*
X17223Y35445D01*
X17500Y35409D01*
X17777Y35445D01*
X18036Y35552D01*
X18257Y35723D01*
X18428Y35944D01*
X18535Y36203D01*
X18571Y36480D01*
X18535Y36757D01*
X18428Y37016D01*
X18257Y37237D01*
X18036Y37408D01*
X17777Y37515D01*
X17500Y37551D01*
D02*
G37*
G36*
Y30091D02*
X17223Y30055D01*
X16964Y29948D01*
X16743Y29777D01*
X16572Y29556D01*
X16465Y29297D01*
X16429Y29020D01*
X16465Y28743D01*
X16572Y28484D01*
X16743Y28263D01*
X16964Y28092D01*
X17223Y27985D01*
X17500Y27949D01*
X17777Y27985D01*
X18036Y28092D01*
X18257Y28263D01*
X18428Y28484D01*
X18535Y28743D01*
X18571Y29020D01*
X18535Y29297D01*
X18428Y29556D01*
X18257Y29777D01*
X18036Y29948D01*
X17777Y30055D01*
X17500Y30091D01*
D02*
G37*
G36*
Y27551D02*
X17223Y27515D01*
X16964Y27408D01*
X16743Y27237D01*
X16572Y27016D01*
X16465Y26757D01*
X16429Y26480D01*
X16465Y26203D01*
X16572Y25944D01*
X16743Y25723D01*
X16964Y25552D01*
X17223Y25445D01*
X17500Y25409D01*
X17777Y25445D01*
X18036Y25552D01*
X18257Y25723D01*
X18428Y25944D01*
X18535Y26203D01*
X18571Y26480D01*
X18535Y26757D01*
X18428Y27016D01*
X18257Y27237D01*
X18036Y27408D01*
X17777Y27515D01*
X17500Y27551D01*
D02*
G37*
G36*
X30000Y29060D02*
X29598Y29020D01*
X29212Y28903D01*
X28856Y28713D01*
X28543Y28457D01*
X28287Y28144D01*
X28097Y27788D01*
X27980Y27402D01*
X27940Y27000D01*
X27980Y26598D01*
X28097Y26212D01*
X28287Y25856D01*
X28543Y25543D01*
X28856Y25287D01*
X29212Y25097D01*
X29598Y24980D01*
X30000Y24940D01*
X30402Y24980D01*
X30788Y25097D01*
X31144Y25287D01*
X31457Y25543D01*
X31713Y25856D01*
X31903Y26212D01*
X32020Y26598D01*
X32060Y27000D01*
X32020Y27402D01*
X31903Y27788D01*
X31713Y28144D01*
X31457Y28457D01*
X31144Y28713D01*
X30788Y28903D01*
X30402Y29020D01*
X30000Y29060D01*
D02*
G37*
G36*
X17500Y20091D02*
X17223Y20055D01*
X16964Y19948D01*
X16743Y19777D01*
X16572Y19556D01*
X16465Y19297D01*
X16429Y19020D01*
X16465Y18743D01*
X16572Y18484D01*
X16743Y18263D01*
X16964Y18092D01*
X17223Y17985D01*
X17500Y17949D01*
X17777Y17985D01*
X18036Y18092D01*
X18257Y18263D01*
X18428Y18484D01*
X18535Y18743D01*
X18571Y19020D01*
X18535Y19297D01*
X18428Y19556D01*
X18257Y19777D01*
X18036Y19948D01*
X17777Y20055D01*
X17500Y20091D01*
D02*
G37*
G36*
Y17551D02*
X17223Y17515D01*
X16964Y17408D01*
X16743Y17237D01*
X16572Y17016D01*
X16465Y16757D01*
X16429Y16480D01*
X16465Y16203D01*
X16572Y15944D01*
X16743Y15723D01*
X16964Y15552D01*
X17223Y15445D01*
X17500Y15409D01*
X17777Y15445D01*
X18036Y15552D01*
X18257Y15723D01*
X18428Y15944D01*
X18535Y16203D01*
X18571Y16480D01*
X18535Y16757D01*
X18428Y17016D01*
X18257Y17237D01*
X18036Y17408D01*
X17777Y17515D01*
X17500Y17551D01*
D02*
G37*
G36*
X24520Y6487D02*
X24233Y6449D01*
X23965Y6339D01*
X23735Y6162D01*
X23559Y5932D01*
X23448Y5665D01*
X23411Y5378D01*
X23448Y5091D01*
X23559Y4823D01*
X23735Y4593D01*
X23965Y4417D01*
X24233Y4306D01*
X24520Y4268D01*
X24807Y4306D01*
X25075Y4417D01*
X25305Y4593D01*
X25481Y4823D01*
X25592Y5091D01*
X25629Y5378D01*
X25592Y5665D01*
X25481Y5932D01*
X25305Y6162D01*
X25075Y6339D01*
X24807Y6449D01*
X24520Y6487D01*
D02*
G37*
G36*
X21596Y2413D02*
X21133Y1612D01*
X21934Y1149D01*
X22397Y1950D01*
X21596Y2413D01*
D02*
G37*
G36*
X22613Y1825D02*
X22151Y1024D01*
X22952Y562D01*
X23414Y1363D01*
X22613Y1825D01*
D02*
G37*
G36*
X21008Y1395D02*
X20546Y594D01*
X21347Y131D01*
X21809Y933D01*
X21008Y1395D01*
D02*
G37*
G36*
X22026Y808D02*
X21563Y6D01*
X22364Y-456D01*
X22827Y345D01*
X22026Y808D01*
D02*
G37*
%LPD*%
D26*
X24841Y48182D02*
Y50635D01*
Y48182D02*
X25281Y47742D01*
Y32281D02*
Y47742D01*
X24520Y31520D02*
X25281Y32281D01*
X22541Y49346D02*
X22761Y49565D01*
X22541Y35898D02*
Y49346D01*
X18894Y32250D02*
X22541Y35898D01*
X11547Y21000D02*
X15789Y25241D01*
X9600Y22200D02*
X14170Y26770D01*
X-2450Y28750D02*
X8980D01*
X11980Y31750D01*
X12442Y30500D02*
X12449D01*
X9715Y27773D02*
X12442Y30500D01*
X18396Y33281D02*
X21391Y36276D01*
X15789Y49532D02*
X20221Y53965D01*
X15789Y25241D02*
Y49532D01*
X21391Y51665D02*
X21491Y51765D01*
X21391Y36276D02*
Y51665D01*
X14170Y26770D02*
Y51384D01*
X18951Y56165D01*
X-3727Y28523D02*
X-2500Y29750D01*
X-2750Y20750D02*
X-1300Y22200D01*
X9600D01*
X-3727Y28082D02*
Y28523D01*
Y28082D02*
X-3418Y27773D01*
X9644D01*
D27*
X-4775Y19025D02*
X-4250Y18500D01*
X-4775Y41975D02*
X-4750Y42000D01*
X-4775Y30025D02*
X-4000Y29250D01*
X-4775Y30025D02*
Y41975D01*
Y19025D02*
Y30025D01*
D28*
X18831Y55964D02*
D03*
X20101Y53765D02*
D03*
X21371Y51565D02*
D03*
X22641Y49365D02*
D03*
X26111Y48436D02*
D03*
X24841Y50635D02*
D03*
X23571Y52835D02*
D03*
X22301Y55035D02*
D03*
X21031Y57234D02*
D03*
X23250Y3178D02*
D03*
X24520Y5378D02*
D03*
D29*
X23911Y47166D02*
D03*
D30*
X17500Y19020D02*
D03*
Y16480D02*
D03*
Y29020D02*
D03*
Y26480D02*
D03*
Y39020D02*
D03*
Y36480D02*
D03*
D31*
X21980Y978D02*
D03*
D32*
X5356Y3178D02*
D03*
Y50822D02*
D03*
X30000Y27000D02*
D03*
D33*
X32600Y46100D02*
D03*
Y42100D02*
D03*
Y38100D02*
D03*
Y34100D02*
D03*
Y30100D02*
D03*
Y26100D02*
D03*
Y22100D02*
D03*
Y18100D02*
D03*
Y14100D02*
D03*
Y10100D02*
D03*
X30600Y46100D02*
D03*
X31600Y44100D02*
D03*
X30600Y42100D02*
D03*
X31600Y40100D02*
D03*
X30600Y38100D02*
D03*
X31600Y36100D02*
D03*
X30600Y34100D02*
D03*
X31600Y32100D02*
D03*
X30600Y30100D02*
D03*
X31600Y24100D02*
D03*
X30600Y22100D02*
D03*
X31600Y20100D02*
D03*
X30600Y18100D02*
D03*
X31600Y16100D02*
D03*
X30600Y14100D02*
D03*
X31600Y12100D02*
D03*
X30600Y10100D02*
D03*
X31600Y8100D02*
D03*
X28600Y54100D02*
D03*
X29600Y52100D02*
D03*
X28600Y50100D02*
D03*
X29600Y48100D02*
D03*
X28600Y46100D02*
D03*
X29600Y44100D02*
D03*
X28600Y42100D02*
D03*
X29600Y40100D02*
D03*
X28600Y38100D02*
D03*
X29600Y36100D02*
D03*
X28600Y34100D02*
D03*
X29600Y32100D02*
D03*
X28600Y30100D02*
D03*
X29600Y24100D02*
D03*
X28600Y22100D02*
D03*
X29600Y20100D02*
D03*
X28600Y18100D02*
D03*
X29600Y16100D02*
D03*
X28600Y14100D02*
D03*
X29600Y12100D02*
D03*
X28600Y10100D02*
D03*
X29600Y8100D02*
D03*
X28600Y6100D02*
D03*
X29600Y4100D02*
D03*
X28600Y2100D02*
D03*
X26600Y58100D02*
D03*
X27600Y56100D02*
D03*
X26600Y54100D02*
D03*
X27600Y52100D02*
D03*
X26600Y50100D02*
D03*
X27600Y48100D02*
D03*
X26600Y46100D02*
D03*
X27600Y44100D02*
D03*
X26600Y42100D02*
D03*
X27600Y40100D02*
D03*
X26600Y38100D02*
D03*
X27600Y36100D02*
D03*
X26600Y34100D02*
D03*
X27600Y32100D02*
D03*
X26600Y30100D02*
D03*
X27600Y28100D02*
D03*
X26600Y26100D02*
D03*
X27600Y24100D02*
D03*
X26600Y22100D02*
D03*
X27600Y20100D02*
D03*
X26600Y18100D02*
D03*
X27600Y16100D02*
D03*
X26600Y14100D02*
D03*
X27600Y12100D02*
D03*
X26600Y10100D02*
D03*
X27600Y8100D02*
D03*
X26600Y6100D02*
D03*
X27600Y4100D02*
D03*
X26600Y2100D02*
D03*
X27600Y100D02*
D03*
X26600Y-1900D02*
D03*
X24600Y62100D02*
D03*
X25600Y60100D02*
D03*
X24600Y58100D02*
D03*
X25600Y56100D02*
D03*
X24600Y54100D02*
D03*
X25600Y52100D02*
D03*
Y28100D02*
D03*
Y24100D02*
D03*
Y20100D02*
D03*
Y16100D02*
D03*
Y12100D02*
D03*
Y8100D02*
D03*
Y4100D02*
D03*
X24600Y2100D02*
D03*
X25600Y100D02*
D03*
X24600Y-1900D02*
D03*
X25600Y-3900D02*
D03*
X24600Y-5900D02*
D03*
X23600Y64100D02*
D03*
X22600Y62100D02*
D03*
X23600Y60100D02*
D03*
Y44100D02*
D03*
Y40100D02*
D03*
Y36100D02*
D03*
X22600Y34100D02*
D03*
X23600Y32100D02*
D03*
X22600Y30100D02*
D03*
X23600Y28100D02*
D03*
X22600Y26100D02*
D03*
X23600Y24100D02*
D03*
X22600Y22100D02*
D03*
X23600Y20100D02*
D03*
X22600Y18100D02*
D03*
X23600Y16100D02*
D03*
X22600Y14100D02*
D03*
X23600Y12100D02*
D03*
X22600Y10100D02*
D03*
X23600Y8100D02*
D03*
X22600Y6100D02*
D03*
X23600Y100D02*
D03*
X22600Y-1900D02*
D03*
X23600Y-3900D02*
D03*
X22600Y-5900D02*
D03*
X23600Y-7900D02*
D03*
X22600Y-9900D02*
D03*
X21600Y64100D02*
D03*
X20600Y62100D02*
D03*
X21600Y60100D02*
D03*
X20600Y50100D02*
D03*
Y46100D02*
D03*
Y42100D02*
D03*
Y38100D02*
D03*
X21600Y32100D02*
D03*
X20600Y30100D02*
D03*
X21600Y28100D02*
D03*
X20600Y26100D02*
D03*
X21600Y24100D02*
D03*
X20600Y22100D02*
D03*
X21600Y20100D02*
D03*
X20600Y18100D02*
D03*
X21600Y16100D02*
D03*
X20600Y14100D02*
D03*
X21600Y12100D02*
D03*
X20600Y10100D02*
D03*
X21600Y8100D02*
D03*
X20600Y6100D02*
D03*
Y2100D02*
D03*
Y-1900D02*
D03*
X21600Y-3900D02*
D03*
X20600Y-5900D02*
D03*
X21600Y-7900D02*
D03*
X18600Y62100D02*
D03*
X19600Y60100D02*
D03*
Y48100D02*
D03*
X18600Y46100D02*
D03*
X19600Y44100D02*
D03*
X18600Y42100D02*
D03*
X19600Y40100D02*
D03*
X18600Y38100D02*
D03*
X19600Y36100D02*
D03*
X18600Y30100D02*
D03*
X19600Y28100D02*
D03*
Y24100D02*
D03*
X18600Y22100D02*
D03*
X19600Y20100D02*
D03*
X18600Y18100D02*
D03*
X19600Y16100D02*
D03*
X18600Y14100D02*
D03*
X19600Y12100D02*
D03*
X18600Y10100D02*
D03*
X19600Y8100D02*
D03*
X18600Y6100D02*
D03*
Y2100D02*
D03*
X19600Y100D02*
D03*
X18600Y-1900D02*
D03*
X19600Y-3900D02*
D03*
X18600Y-5900D02*
D03*
X19600Y-7900D02*
D03*
X17600Y60100D02*
D03*
Y48100D02*
D03*
X16600Y46100D02*
D03*
X17600Y44100D02*
D03*
X16600Y42100D02*
D03*
Y34100D02*
D03*
Y30100D02*
D03*
X17600Y24100D02*
D03*
X16600Y22100D02*
D03*
Y14100D02*
D03*
X17600Y12100D02*
D03*
X16600Y10100D02*
D03*
X17600Y8100D02*
D03*
X16600Y6100D02*
D03*
Y2100D02*
D03*
X17600Y100D02*
D03*
X16600Y-1900D02*
D03*
X17600Y-3900D02*
D03*
X16600Y-5900D02*
D03*
X15600Y60100D02*
D03*
X14600Y58100D02*
D03*
Y22100D02*
D03*
X15600Y20100D02*
D03*
X14600Y18100D02*
D03*
Y14100D02*
D03*
X15600Y12100D02*
D03*
X14600Y10100D02*
D03*
X15600Y8100D02*
D03*
X14600Y6100D02*
D03*
Y2100D02*
D03*
X15600Y100D02*
D03*
X14600Y-1900D02*
D03*
X15600Y-3900D02*
D03*
X12600Y58100D02*
D03*
X13600Y56100D02*
D03*
X12600Y42100D02*
D03*
Y34100D02*
D03*
X13600Y20100D02*
D03*
X12600Y14100D02*
D03*
X13600Y12100D02*
D03*
X12600Y10100D02*
D03*
X13600Y8100D02*
D03*
X12600Y6100D02*
D03*
Y2100D02*
D03*
X13600Y100D02*
D03*
X12600Y-1900D02*
D03*
X13600Y-3900D02*
D03*
X11600Y56100D02*
D03*
X10600Y54100D02*
D03*
X11600Y44100D02*
D03*
X10600Y42100D02*
D03*
X11600Y40100D02*
D03*
Y36100D02*
D03*
X10600Y34100D02*
D03*
Y26100D02*
D03*
Y22100D02*
D03*
X11600Y16100D02*
D03*
X10600Y14100D02*
D03*
X11600Y12100D02*
D03*
X10600Y10100D02*
D03*
X11600Y8100D02*
D03*
X10600Y6100D02*
D03*
Y2100D02*
D03*
X11600Y100D02*
D03*
X10600Y-1900D02*
D03*
X24520Y31520D02*
D03*
X11547Y21000D02*
D03*
X12449Y30500D02*
D03*
X11980Y31750D02*
D03*
X18396Y33281D02*
D03*
X18894Y32250D02*
D03*
X-4750Y42000D02*
D03*
X-4250Y18500D02*
D03*
X-4000Y29250D02*
D03*
D34*
X9600Y22200D02*
D03*
X-2750Y20750D02*
D03*
X-2500Y29750D02*
D03*
X-2450Y28750D02*
D03*
X2005Y16250D02*
D03*
Y26000D02*
D03*
X2000Y36000D02*
D03*
D35*
X8250Y3250D02*
X23063Y3250D01*
M02*
