G04*
G04 #@! TF.GenerationSoftware,Altium Limited,Altium Designer,18.1.9 (240)*
G04*
G04 Layer_Color=8388736*
%FSLAX43Y43*%
%MOMM*%
G71*
G01*
G75*
%ADD18R,1.100X1.900*%
%ADD19R,0.910X0.460*%
%ADD20R,1.100X1.100*%
%ADD21C,1.800*%
%ADD22P,2.546X4X165.0*%
%ADD23C,1.724*%
%ADD24P,2.546X4X105.0*%
%ADD25C,3.700*%
D18*
X1000Y18000D02*
D03*
Y28000D02*
D03*
Y38000D02*
D03*
D19*
X-5Y17250D02*
D03*
Y17750D02*
D03*
Y18250D02*
D03*
Y18750D02*
D03*
X2005D02*
D03*
Y18250D02*
D03*
Y17750D02*
D03*
Y17250D02*
D03*
X-5Y27250D02*
D03*
Y27750D02*
D03*
Y28250D02*
D03*
Y28750D02*
D03*
X2005D02*
D03*
Y28250D02*
D03*
Y27750D02*
D03*
Y27250D02*
D03*
X-5Y37250D02*
D03*
Y37750D02*
D03*
Y38250D02*
D03*
Y38750D02*
D03*
X2005D02*
D03*
Y38250D02*
D03*
Y37750D02*
D03*
Y37250D02*
D03*
D20*
X1750Y13450D02*
D03*
Y15050D02*
D03*
X-2250Y14950D02*
D03*
Y16550D02*
D03*
X1750Y23200D02*
D03*
Y24800D02*
D03*
X-2000Y25200D02*
D03*
Y26800D02*
D03*
X1750Y33200D02*
D03*
Y34800D02*
D03*
X-2750Y34950D02*
D03*
Y36550D02*
D03*
D21*
X18831Y55964D02*
D03*
X20101Y53765D02*
D03*
X21371Y51565D02*
D03*
X22641Y49365D02*
D03*
X26111Y48436D02*
D03*
X24841Y50635D02*
D03*
X23571Y52835D02*
D03*
X22301Y55035D02*
D03*
X21031Y57234D02*
D03*
X23250Y3178D02*
D03*
X24520Y5378D02*
D03*
D22*
X23911Y47166D02*
D03*
D23*
X17500Y19020D02*
D03*
Y16480D02*
D03*
Y29020D02*
D03*
Y26480D02*
D03*
Y39020D02*
D03*
Y36480D02*
D03*
D24*
X21980Y978D02*
D03*
D25*
X5356Y3178D02*
D03*
Y50822D02*
D03*
X30000Y27000D02*
D03*
M02*
