G04*
G04 #@! TF.GenerationSoftware,Altium Limited,Altium Designer,18.1.9 (240)*
G04*
G04 Layer_Color=65535*
%FSLAX43Y43*%
%MOMM*%
G71*
G01*
G75*
%ADD10C,0.150*%
%ADD11C,0.200*%
%ADD12C,0.127*%
%ADD13C,0.152*%
%ADD14R,0.508X0.508*%
D10*
X2669Y17250D02*
G03*
X2669Y17250I-50J0D01*
G01*
Y27250D02*
G03*
X2669Y27250I-50J0D01*
G01*
Y37250D02*
G03*
X2669Y37250I-50J0D01*
G01*
X26725Y51603D02*
X27129Y51836D01*
X26810Y51922D02*
X27044Y51518D01*
X27214Y52155D02*
X27257Y52314D01*
X27459Y52431D01*
X27618Y52388D01*
X27677Y52287D01*
X27634Y52128D01*
X27533Y52070D01*
X27634Y52128D01*
X27793Y52085D01*
X27852Y51984D01*
X27809Y51825D01*
X27607Y51708D01*
X27448Y51751D01*
X27762Y52606D02*
X27995Y52202D01*
X28314Y52116D01*
X28399Y52435D01*
X28166Y52839D01*
X28427Y52855D02*
X28469Y53014D01*
X28671Y53131D01*
X28831Y53088D01*
X28889Y52987D01*
X28846Y52828D01*
X28745Y52769D01*
X28846Y52828D01*
X29005Y52785D01*
X29064Y52684D01*
X29021Y52525D01*
X28819Y52408D01*
X28660Y52451D01*
X28212Y49936D02*
X28053Y49978D01*
X27851Y49862D01*
X27808Y49702D01*
X28042Y49298D01*
X28201Y49256D01*
X28403Y49372D01*
X28446Y49531D01*
X28329Y49733D01*
X28127Y49617D01*
X28706Y49547D02*
X28356Y50153D01*
X29110Y49780D01*
X28760Y50386D01*
X28962Y50503D02*
X29312Y49897D01*
X29615Y50072D01*
X29658Y50231D01*
X29424Y50635D01*
X29265Y50678D01*
X28962Y50503D01*
X25750Y54328D02*
X25591Y54371D01*
X25389Y54254D01*
X25346Y54095D01*
X25404Y53994D01*
X25564Y53951D01*
X25766Y54068D01*
X25925Y54025D01*
X25983Y53924D01*
X25941Y53765D01*
X25739Y53648D01*
X25579Y53691D01*
X26244Y53940D02*
X26446Y54056D01*
X26345Y53998D01*
X25995Y54604D01*
X25894Y54546D01*
X27052Y54406D02*
X26850Y54290D01*
X26690Y54332D01*
X26574Y54534D01*
X26616Y54694D01*
X26818Y54810D01*
X26978Y54768D01*
X27036Y54667D01*
X26632Y54433D01*
X27658Y54756D02*
X27456Y54640D01*
X27296Y54682D01*
X27180Y54884D01*
X27222Y55044D01*
X27424Y55160D01*
X27584Y55118D01*
X27642Y55016D01*
X27238Y54783D01*
X28077Y54729D02*
X27727Y55335D01*
X28030Y55510D01*
X28190Y55467D01*
X28306Y55265D01*
X28264Y55106D01*
X27961Y54931D01*
X19554Y48214D02*
X19150Y47981D01*
X19500Y47375D01*
X19904Y47608D01*
X19325Y47678D02*
X19527Y47795D01*
X20106Y47725D02*
X19756Y48331D01*
X20510Y47958D01*
X20160Y48564D01*
X21116Y48308D02*
X20712Y48075D01*
X20883Y48712D01*
X20824Y48813D01*
X20665Y48856D01*
X20463Y48739D01*
X20420Y48580D01*
X18257Y49565D02*
X17908Y50171D01*
X18211Y50346D01*
X18370Y50304D01*
X18486Y50102D01*
X18444Y49942D01*
X18141Y49767D01*
X18514Y50521D02*
X18863Y49915D01*
X18689Y50218D01*
X19093Y50452D01*
X18918Y50755D01*
X19267Y50149D01*
X19873Y50498D02*
X19469Y50265D01*
X19640Y50902D01*
X19582Y51003D01*
X19423Y51046D01*
X19221Y50930D01*
X19178Y50770D01*
X24706Y56685D02*
X24302Y56451D01*
X24652Y55845D01*
X25056Y56078D01*
X24477Y56148D02*
X24679Y56265D01*
X25258Y56195D02*
X24908Y56801D01*
X25662Y56428D01*
X25312Y57034D01*
X25864Y56545D02*
X26066Y56662D01*
X25965Y56603D01*
X25615Y57209D01*
X25572Y57050D01*
X23164Y58023D02*
X22814Y58629D01*
X23117Y58804D01*
X23276Y58761D01*
X23393Y58559D01*
X23350Y58400D01*
X23047Y58225D01*
X23420Y58979D02*
X23770Y58373D01*
X23595Y58676D01*
X23999Y58909D01*
X23824Y59212D01*
X24174Y58606D01*
X24376Y58722D02*
X24578Y58839D01*
X24477Y58781D01*
X24127Y59387D01*
X24084Y59227D01*
X17054Y52589D02*
X16650Y52356D01*
X17000Y51750D01*
X17404Y51983D01*
X16825Y52053D02*
X17027Y52170D01*
X17606Y52100D02*
X17256Y52706D01*
X18010Y52333D01*
X17660Y52939D01*
X17920Y52955D02*
X17963Y53114D01*
X18165Y53231D01*
X18324Y53188D01*
X18383Y53087D01*
X18340Y52928D01*
X18239Y52869D01*
X18340Y52928D01*
X18499Y52885D01*
X18558Y52784D01*
X18515Y52625D01*
X18313Y52508D01*
X18154Y52551D01*
X15750Y53820D02*
X15400Y54426D01*
X15703Y54601D01*
X15862Y54558D01*
X15979Y54356D01*
X15936Y54197D01*
X15633Y54022D01*
X16006Y54776D02*
X16356Y54170D01*
X16181Y54473D01*
X16585Y54706D01*
X16410Y55009D01*
X16760Y54403D01*
X16670Y55024D02*
X16713Y55184D01*
X16915Y55300D01*
X17074Y55258D01*
X17133Y55157D01*
X17090Y54997D01*
X16989Y54939D01*
X17090Y54997D01*
X17249Y54955D01*
X17308Y54854D01*
X17265Y54694D01*
X17063Y54578D01*
X16904Y54620D01*
X26212Y4553D02*
X26616Y4319D01*
X26530Y4638D02*
X26297Y4234D01*
X26934Y4405D02*
X27094Y4448D01*
X27296Y4331D01*
X27338Y4172D01*
X27280Y4071D01*
X27121Y4028D01*
X27020Y4086D01*
X27121Y4028D01*
X27163Y3869D01*
X27105Y3768D01*
X26946Y3725D01*
X26744Y3841D01*
X26701Y4001D01*
X27599Y4156D02*
X27365Y3752D01*
X27451Y3433D01*
X27769Y3519D01*
X28003Y3923D01*
X28146Y3705D02*
X28306Y3748D01*
X28508Y3631D01*
X28550Y3472D01*
X28492Y3371D01*
X28333Y3328D01*
X28232Y3386D01*
X28333Y3328D01*
X28375Y3169D01*
X28317Y3068D01*
X28158Y3025D01*
X27956Y3142D01*
X27913Y3301D01*
X24193Y-228D02*
X24151Y-69D01*
X23949Y48D01*
X23789Y5D01*
X23556Y-399D01*
X23599Y-558D01*
X23801Y-675D01*
X23960Y-632D01*
X24077Y-430D01*
X23875Y-314D01*
X24104Y-850D02*
X24454Y-244D01*
X24508Y-1083D01*
X24858Y-477D01*
X25060Y-594D02*
X24710Y-1200D01*
X25013Y-1375D01*
X25172Y-1332D01*
X25405Y-928D01*
X25363Y-769D01*
X25060Y-594D01*
X25100Y2431D02*
X24867Y2027D01*
X24952Y1708D01*
X25271Y1794D01*
X25504Y2198D01*
X26052Y1747D02*
X26009Y1906D01*
X25807Y2023D01*
X25648Y1980D01*
X25414Y1576D01*
X25457Y1417D01*
X25659Y1300D01*
X25818Y1343D01*
X26658Y1397D02*
X26615Y1556D01*
X26413Y1673D01*
X26254Y1630D01*
X26020Y1226D01*
X26063Y1067D01*
X26265Y950D01*
X26424Y993D01*
X33250Y11250D02*
X32450D01*
Y11650D01*
X32584Y11783D01*
X32850D01*
X32983Y11650D01*
Y11250D01*
X33250Y12183D02*
Y12450D01*
X33117Y12583D01*
X32850D01*
X32717Y12450D01*
Y12183D01*
X32850Y12050D01*
X33117D01*
X33250Y12183D01*
Y12849D02*
X32717D01*
Y13249D01*
X32850Y13383D01*
X33250D01*
X32584Y13783D02*
X32717D01*
Y13649D01*
Y13916D01*
Y13783D01*
X33117D01*
X33250Y13916D01*
Y14716D02*
Y14449D01*
X33117Y14316D01*
X32850D01*
X32717Y14449D01*
Y14716D01*
X32850Y14849D01*
X32983D01*
Y14316D01*
X32450Y15915D02*
X33250D01*
X32850D01*
Y16448D01*
X32450D01*
X33250D01*
X32584Y17648D02*
X32717D01*
Y17515D01*
Y17781D01*
Y17648D01*
X33117D01*
X33250Y17781D01*
X32717Y18181D02*
X33250D01*
X32983D01*
X32850Y18314D01*
X32717Y18448D01*
Y18581D01*
X33250Y18981D02*
Y19247D01*
Y19114D01*
X32717D01*
Y18981D01*
X33517Y19647D02*
X32717D01*
Y20047D01*
X32850Y20180D01*
X33117D01*
X33250Y20047D01*
Y19647D01*
Y20447D02*
Y20714D01*
Y20580D01*
X32450D01*
Y20447D01*
X32717Y21247D02*
Y21513D01*
X32850Y21647D01*
X33250D01*
Y21247D01*
X33117Y21113D01*
X32983Y21247D01*
Y21647D01*
X32850Y22713D02*
Y23246D01*
X32717Y24312D02*
X33250D01*
X32983D01*
X32850Y24446D01*
X32717Y24579D01*
Y24712D01*
X33250Y25512D02*
Y25245D01*
X33117Y25112D01*
X32850D01*
X32717Y25245D01*
Y25512D01*
X32850Y25645D01*
X32983D01*
Y25112D01*
X32717Y25912D02*
X33250Y26179D01*
X32717Y26445D01*
X32584Y26712D02*
X32450Y26845D01*
Y27112D01*
X32584Y27245D01*
X33117D01*
X33250Y27112D01*
Y26845D01*
X33117Y26712D01*
X32584D01*
X33250Y27511D02*
X33117D01*
Y27645D01*
X33250D01*
Y27511D01*
X32584Y28178D02*
X32450Y28311D01*
Y28578D01*
X32584Y28711D01*
X32717D01*
X32850Y28578D01*
Y28444D01*
Y28578D01*
X32983Y28711D01*
X33117D01*
X33250Y28578D01*
Y28311D01*
X33117Y28178D01*
X-2833Y33217D02*
X-2950Y33100D01*
Y32867D01*
X-2833Y32750D01*
X-2367D01*
X-2250Y32867D01*
Y33100D01*
X-2367Y33217D01*
X-2250Y33450D02*
Y33683D01*
Y33566D01*
X-2950D01*
X-2833Y33450D01*
X3167Y33467D02*
X3050Y33350D01*
Y33117D01*
X3167Y33000D01*
X3633D01*
X3750Y33117D01*
Y33350D01*
X3633Y33467D01*
X3750Y34166D02*
Y33700D01*
X3283Y34166D01*
X3167D01*
X3050Y34050D01*
Y33816D01*
X3167Y33700D01*
X-3833Y25967D02*
X-3950Y25850D01*
Y25617D01*
X-3833Y25500D01*
X-3367D01*
X-3250Y25617D01*
Y25850D01*
X-3367Y25967D01*
X-3833Y26200D02*
X-3950Y26316D01*
Y26550D01*
X-3833Y26666D01*
X-3717D01*
X-3600Y26550D01*
Y26433D01*
Y26550D01*
X-3483Y26666D01*
X-3367D01*
X-3250Y26550D01*
Y26316D01*
X-3367Y26200D01*
X3167Y23467D02*
X3050Y23350D01*
Y23117D01*
X3167Y23000D01*
X3633D01*
X3750Y23117D01*
Y23350D01*
X3633Y23467D01*
X3750Y24050D02*
X3050D01*
X3400Y23700D01*
Y24166D01*
X-4083Y15467D02*
X-4200Y15350D01*
Y15117D01*
X-4083Y15000D01*
X-3617D01*
X-3500Y15117D01*
Y15350D01*
X-3617Y15467D01*
X-4200Y16166D02*
Y15700D01*
X-3850D01*
X-3967Y15933D01*
Y16050D01*
X-3850Y16166D01*
X-3617D01*
X-3500Y16050D01*
Y15816D01*
X-3617Y15700D01*
X3167Y13717D02*
X3050Y13600D01*
Y13367D01*
X3167Y13250D01*
X3633D01*
X3750Y13367D01*
Y13600D01*
X3633Y13717D01*
X3050Y14416D02*
X3167Y14183D01*
X3400Y13950D01*
X3633D01*
X3750Y14066D01*
Y14300D01*
X3633Y14416D01*
X3517D01*
X3400Y14300D01*
Y13950D01*
X25829Y7899D02*
X25627Y8016D01*
X25728Y7958D01*
X25436Y7453D01*
X25277Y7410D01*
X25176Y7468D01*
X25133Y7628D01*
X25681Y7177D02*
X25883Y7060D01*
X25782Y7119D01*
X26132Y7725D01*
X25972Y7682D01*
X26054Y46139D02*
X25852Y46023D01*
X25953Y46081D01*
X26245Y45576D01*
X26202Y45417D01*
X26101Y45358D01*
X25942Y45401D01*
X27010Y45883D02*
X26606Y45650D01*
X26777Y46287D01*
X26718Y46388D01*
X26559Y46431D01*
X26357Y46314D01*
X26314Y46155D01*
X15283Y42944D02*
X15049D01*
X15166D01*
Y42361D01*
X15049Y42245D01*
X14933D01*
X14816Y42361D01*
X15516Y42245D02*
Y42944D01*
X15866D01*
X15983Y42828D01*
Y42594D01*
X15866Y42478D01*
X15516D01*
X16216Y42245D02*
X16449D01*
X16332D01*
Y42944D01*
X16216Y42828D01*
X15283Y32937D02*
X15049D01*
X15166D01*
Y32354D01*
X15049Y32237D01*
X14933D01*
X14816Y32354D01*
X15516Y32237D02*
Y32937D01*
X15866D01*
X15983Y32820D01*
Y32587D01*
X15866Y32470D01*
X15516D01*
X16682Y32237D02*
X16216D01*
X16682Y32704D01*
Y32820D01*
X16566Y32937D01*
X16332D01*
X16216Y32820D01*
X15273Y22929D02*
X15040D01*
X15157D01*
Y22346D01*
X15040Y22229D01*
X14923D01*
X14807Y22346D01*
X15507Y22229D02*
Y22929D01*
X15856D01*
X15973Y22813D01*
Y22579D01*
X15856Y22463D01*
X15507D01*
X16206Y22813D02*
X16323Y22929D01*
X16556D01*
X16673Y22813D01*
Y22696D01*
X16556Y22579D01*
X16440D01*
X16556D01*
X16673Y22463D01*
Y22346D01*
X16556Y22229D01*
X16323D01*
X16206Y22346D01*
X-488Y40629D02*
Y40046D01*
X-372Y39929D01*
X-138D01*
X-22Y40046D01*
Y40629D01*
X212Y39929D02*
X445D01*
X328D01*
Y40629D01*
X212Y40512D01*
X0Y30700D02*
Y30117D01*
X117Y30000D01*
X350D01*
X467Y30117D01*
Y30700D01*
X1166Y30000D02*
X700D01*
X1166Y30467D01*
Y30583D01*
X1050Y30700D01*
X816D01*
X700Y30583D01*
X0Y20700D02*
Y20117D01*
X117Y20000D01*
X350D01*
X467Y20117D01*
Y20700D01*
X700Y20583D02*
X816Y20700D01*
X1050D01*
X1166Y20583D01*
Y20467D01*
X1050Y20350D01*
X933D01*
X1050D01*
X1166Y20233D01*
Y20117D01*
X1050Y20000D01*
X816D01*
X700Y20117D01*
D11*
X23446Y45431D02*
X27846Y47971D01*
X21496Y58969D02*
X27846Y47971D01*
X17096Y56429D02*
X21496Y58969D01*
X17096Y56429D02*
X23446Y45431D01*
X20245Y513D02*
X24055Y7113D01*
X26255Y5843D01*
X22445Y-757D02*
X26255Y5843D01*
X20245Y513D02*
X22445Y-757D01*
D12*
X0Y19070D02*
X2000D01*
X0Y16930D02*
X2000D01*
X0Y29070D02*
X2000D01*
X0Y26930D02*
X2000D01*
X0Y39070D02*
X2000D01*
X0Y36930D02*
X2000D01*
X2360Y13450D02*
Y15050D01*
X1140Y13450D02*
Y15050D01*
X-1640Y14950D02*
Y16550D01*
X-2860Y14950D02*
Y16550D01*
X2360Y23200D02*
Y24800D01*
X1140Y23200D02*
Y24800D01*
X-1390Y25200D02*
Y26800D01*
X-2610Y25200D02*
Y26800D01*
X2360Y33200D02*
Y34800D01*
X1140Y33200D02*
Y34800D01*
X-2140Y34950D02*
Y36550D01*
X-3360Y34950D02*
Y36550D01*
D13*
X14740Y13991D02*
Y21500D01*
X19608Y13991D02*
Y20255D01*
X14740Y13991D02*
X19608D01*
X14740Y21500D02*
X18364D01*
X19608Y20255D01*
X14740Y23991D02*
Y31500D01*
X19608Y23991D02*
Y30255D01*
X14740Y23991D02*
X19608D01*
X14740Y31500D02*
X18364D01*
X19608Y30255D01*
X14740Y33991D02*
Y41500D01*
X19608Y33991D02*
Y40255D01*
X14740Y33991D02*
X19608D01*
X14740Y41500D02*
X18364D01*
X19608Y40255D01*
D14*
X17500Y16480D02*
D03*
Y19020D02*
D03*
Y26480D02*
D03*
Y29020D02*
D03*
Y36480D02*
D03*
Y39020D02*
D03*
M02*
