G04*
G04 #@! TF.GenerationSoftware,Altium Limited,Altium Designer,20.0.14 (345)*
G04*
G04 Layer_Color=8388736*
%FSLAX43Y43*%
%MOMM*%
G71*
G01*
G75*
%ADD13C,1.981*%
%ADD14C,1.803*%
%ADD15R,1.803X1.803*%
%ADD16P,2.550X4X345.0*%
%ADD17P,2.550X4X105.0*%
%ADD18C,3.703*%
%ADD19C,1.203*%
D13*
X10860Y17410D02*
D03*
Y14870D02*
D03*
Y12330D02*
D03*
Y9790D02*
D03*
Y7250D02*
D03*
Y4710D02*
D03*
Y2170D02*
D03*
Y-370D02*
D03*
Y-2910D02*
D03*
Y-5450D02*
D03*
Y-7990D02*
D03*
Y-10530D02*
D03*
X-12000Y17410D02*
D03*
Y14870D02*
D03*
Y12330D02*
D03*
Y9790D02*
D03*
Y7250D02*
D03*
Y4710D02*
D03*
Y2170D02*
D03*
Y-370D02*
D03*
Y-2910D02*
D03*
Y-5450D02*
D03*
Y-7990D02*
D03*
Y-10530D02*
D03*
D14*
X-18000Y-16436D02*
D03*
Y-11356D02*
D03*
Y-6276D02*
D03*
Y-8816D02*
D03*
Y-13896D02*
D03*
Y-18976D02*
D03*
X-24960Y-29299D02*
D03*
X-26230Y-27099D02*
D03*
X-27500Y-24900D02*
D03*
X-28770Y-22700D02*
D03*
X-32240Y-21770D02*
D03*
X-30970Y-23970D02*
D03*
X-29700Y-26170D02*
D03*
X-28430Y-28369D02*
D03*
X-27160Y-30569D02*
D03*
Y29700D02*
D03*
X-28430Y27500D02*
D03*
X-29700Y25300D02*
D03*
X-30970Y23101D02*
D03*
X-30040Y19631D02*
D03*
X-28770Y21831D02*
D03*
X-27500Y24030D02*
D03*
X-26230Y26230D02*
D03*
X-24960Y28430D02*
D03*
D15*
X-18000Y-3736D02*
D03*
D16*
X-30040Y-20500D02*
D03*
D17*
X-32240Y20901D02*
D03*
D18*
X-36000Y465D02*
D03*
X-11356Y-23357D02*
D03*
Y24287D02*
D03*
D19*
X-23750Y18000D02*
D03*
X-26053Y20697D02*
D03*
X-18000Y19000D02*
D03*
X-16750Y28000D02*
D03*
X1000Y23500D02*
D03*
X-15500Y14870D02*
D03*
X-14750Y16750D02*
D03*
X-250Y15000D02*
D03*
X-2000Y12750D02*
D03*
X-18500Y465D02*
D03*
X-21250Y10250D02*
D03*
X-21750Y6500D02*
D03*
X-31876Y-17411D02*
D03*
X-23500Y-18892D02*
D03*
M02*
