G04*
G04 #@! TF.GenerationSoftware,Altium Limited,Altium Designer,18.1.9 (240)*
G04*
G04 Layer_Color=65535*
%FSLAX43Y43*%
%MOMM*%
G71*
G01*
G75*
%ADD10C,0.200*%
%ADD11C,0.150*%
%ADD12C,0.254*%
D10*
X-5892Y7450D02*
G03*
X-5892Y7450I-72J0D01*
G01*
X-6870Y-4615D02*
X-3822D01*
Y-1764D02*
Y2694D01*
X-5549Y6053D02*
X-4906D01*
X-6870Y-1711D02*
Y3149D01*
X-3822Y-4615D02*
Y-1764D01*
Y3951D02*
Y4599D01*
Y2694D02*
Y3951D01*
Y4599D02*
Y6053D01*
X-4906D02*
X-3822D01*
X-6870D02*
X-5549D01*
X-6870Y-4615D02*
Y-1711D01*
Y3149D02*
Y6053D01*
X-16730Y-20247D02*
Y-2466D01*
X-19270Y-20247D02*
X-16730D01*
X-19270D02*
Y-2466D01*
X-16730D01*
X-33975Y-21305D02*
X-29575Y-18765D01*
X-33975Y-21305D02*
X-27625Y-32304D01*
X-23225Y-29764D01*
X-29575Y-18765D02*
X-23225Y-29764D01*
X-33975Y20436D02*
X-29575Y17896D01*
X-23225Y28895D01*
X-27625Y31435D02*
X-23225Y28895D01*
X-33975Y20436D02*
X-27625Y31435D01*
D11*
X-6362Y-4996D02*
Y-5229D01*
Y-5112D01*
X-5662D01*
X-5779Y-4996D01*
X-5662Y-6045D02*
Y-5579D01*
X-6012D01*
X-5895Y-5812D01*
Y-5929D01*
X-6012Y-6045D01*
X-6245D01*
X-6362Y-5929D01*
Y-5695D01*
X-6245Y-5579D01*
X-5092Y-4996D02*
Y-5229D01*
Y-5112D01*
X-4392D01*
X-4509Y-4996D01*
X-4392Y-6045D02*
X-4509Y-5812D01*
X-4742Y-5579D01*
X-4975D01*
X-5092Y-5695D01*
Y-5929D01*
X-4975Y-6045D01*
X-4859D01*
X-4742Y-5929D01*
Y-5579D01*
X-5092Y6730D02*
Y7196D01*
X-4625Y6730D01*
X-4509D01*
X-4392Y6846D01*
Y7080D01*
X-4509Y7196D01*
X-6288Y7090D02*
Y6857D01*
Y6974D01*
X-5588D01*
X-5705Y7090D01*
X-28232Y-19307D02*
X-28189Y-19148D01*
X-27987Y-19031D01*
X-27828Y-19074D01*
X-27769Y-19175D01*
X-27812Y-19334D01*
X-27913Y-19392D01*
X-27812Y-19334D01*
X-27653Y-19377D01*
X-27594Y-19478D01*
X-27637Y-19637D01*
X-27839Y-19754D01*
X-27998Y-19711D01*
X-27684Y-18856D02*
X-27451Y-19260D01*
X-27132Y-19345D01*
X-27047Y-19027D01*
X-27280Y-18623D01*
X-27020Y-18607D02*
X-26977Y-18448D01*
X-26775Y-18331D01*
X-26616Y-18374D01*
X-26557Y-18475D01*
X-26600Y-18634D01*
X-26701Y-18693D01*
X-26600Y-18634D01*
X-26441Y-18677D01*
X-26382Y-18778D01*
X-26425Y-18937D01*
X-26627Y-19054D01*
X-26786Y-19011D01*
X-26962Y-21339D02*
X-26919Y-21180D01*
X-26717Y-21063D01*
X-26558Y-21106D01*
X-26499Y-21207D01*
X-26542Y-21366D01*
X-26643Y-21424D01*
X-26542Y-21366D01*
X-26383Y-21409D01*
X-26324Y-21510D01*
X-26367Y-21669D01*
X-26569Y-21786D01*
X-26728Y-21743D01*
X-26414Y-20888D02*
X-26181Y-21292D01*
X-25862Y-21377D01*
X-25777Y-21059D01*
X-26010Y-20655D01*
X-25750Y-20639D02*
X-25707Y-20480D01*
X-25505Y-20363D01*
X-25346Y-20406D01*
X-25287Y-20507D01*
X-25330Y-20666D01*
X-25431Y-20725D01*
X-25330Y-20666D01*
X-25171Y-20709D01*
X-25112Y-20810D01*
X-25155Y-20969D01*
X-25357Y-21086D01*
X-25516Y-21043D01*
X-34744Y-22783D02*
X-35148Y-23016D01*
X-34973Y-23319D01*
X-34829Y-23101D01*
X-34728Y-23043D01*
X-34569Y-23086D01*
X-34452Y-23288D01*
X-34495Y-23447D01*
X-34697Y-23564D01*
X-34856Y-23521D01*
X-34542Y-22666D02*
X-34309Y-23070D01*
X-33990Y-23155D01*
X-33905Y-22837D01*
X-34138Y-22433D01*
X-33474Y-24826D02*
X-33878Y-25059D01*
X-33703Y-25362D01*
X-33559Y-25145D01*
X-33458Y-25086D01*
X-33299Y-25129D01*
X-33182Y-25331D01*
X-33225Y-25490D01*
X-33427Y-25607D01*
X-33586Y-25564D01*
X-33272Y-24709D02*
X-33039Y-25114D01*
X-32720Y-25199D01*
X-32635Y-24880D01*
X-32868Y-24476D01*
X-31040Y31281D02*
X-30690Y31887D01*
X-30387Y31712D01*
X-30345Y31553D01*
X-30461Y31351D01*
X-30621Y31308D01*
X-30924Y31483D01*
X-30084Y31537D02*
X-30434Y30931D01*
X-30259Y31234D01*
X-29855Y31001D01*
X-29680Y31304D01*
X-30030Y30698D01*
X-29537Y31086D02*
X-29377Y31129D01*
X-29175Y31012D01*
X-29133Y30853D01*
X-29191Y30752D01*
X-29350Y30709D01*
X-29451Y30768D01*
X-29350Y30709D01*
X-29307Y30550D01*
X-29366Y30449D01*
X-29525Y30406D01*
X-29727Y30523D01*
X-29770Y30682D01*
X-31286Y29776D02*
X-31690Y30009D01*
X-32040Y29403D01*
X-31636Y29170D01*
X-31865Y29706D02*
X-31663Y29590D01*
X-31434Y29053D02*
X-31084Y29659D01*
X-31030Y28820D01*
X-30680Y29426D01*
X-30537Y29208D02*
X-30377Y29251D01*
X-30175Y29135D01*
X-30133Y28975D01*
X-30191Y28874D01*
X-30350Y28831D01*
X-30451Y28890D01*
X-30350Y28831D01*
X-30307Y28672D01*
X-30366Y28571D01*
X-30525Y28528D01*
X-30727Y28645D01*
X-30770Y28804D01*
X-23040Y27304D02*
X-22690Y27910D01*
X-22387Y27735D01*
X-22345Y27576D01*
X-22461Y27374D01*
X-22621Y27331D01*
X-22924Y27506D01*
X-22084Y27560D02*
X-22434Y26954D01*
X-22259Y27257D01*
X-21855Y27024D01*
X-21680Y27327D01*
X-22030Y26721D01*
X-21828Y26604D02*
X-21626Y26488D01*
X-21727Y26546D01*
X-21377Y27152D01*
X-21537Y27110D01*
X-23786Y25377D02*
X-24190Y25610D01*
X-24540Y25004D01*
X-24136Y24771D01*
X-24365Y25307D02*
X-24163Y25190D01*
X-23934Y24654D02*
X-23584Y25260D01*
X-23530Y24421D01*
X-23180Y25027D01*
X-23328Y24304D02*
X-23126Y24187D01*
X-23227Y24246D01*
X-22877Y24852D01*
X-23037Y24809D01*
X-33540Y27203D02*
X-33190Y27810D01*
X-32887Y27635D01*
X-32845Y27475D01*
X-32961Y27273D01*
X-33121Y27231D01*
X-33424Y27406D01*
X-32584Y27460D02*
X-32934Y26854D01*
X-32759Y27157D01*
X-32355Y26923D01*
X-32180Y27226D01*
X-32530Y26620D01*
X-31924Y26270D02*
X-32328Y26504D01*
X-31691Y26674D01*
X-31633Y26775D01*
X-31675Y26935D01*
X-31877Y27051D01*
X-32037Y27009D01*
X-34286Y25377D02*
X-34690Y25610D01*
X-35040Y25004D01*
X-34636Y24771D01*
X-34865Y25307D02*
X-34663Y25190D01*
X-34434Y24654D02*
X-34084Y25260D01*
X-34030Y24421D01*
X-33680Y25027D01*
X-33424Y24071D02*
X-33828Y24304D01*
X-33191Y24475D01*
X-33133Y24576D01*
X-33175Y24735D01*
X-33377Y24852D01*
X-33537Y24809D01*
X-25090Y23045D02*
X-25133Y23204D01*
X-25335Y23321D01*
X-25494Y23278D01*
X-25553Y23177D01*
X-25510Y23018D01*
X-25308Y22901D01*
X-25265Y22742D01*
X-25324Y22641D01*
X-25483Y22598D01*
X-25685Y22715D01*
X-25728Y22874D01*
X-25180Y22423D02*
X-24978Y22307D01*
X-25079Y22365D01*
X-24729Y22971D01*
X-24830Y23029D01*
X-24372Y21957D02*
X-24574Y22073D01*
X-24617Y22233D01*
X-24500Y22435D01*
X-24341Y22478D01*
X-24139Y22361D01*
X-24096Y22202D01*
X-24154Y22101D01*
X-24558Y22334D01*
X-23766Y21607D02*
X-23968Y21724D01*
X-24011Y21883D01*
X-23894Y22085D01*
X-23735Y22128D01*
X-23533Y22011D01*
X-23490Y21852D01*
X-23548Y21751D01*
X-23952Y21984D01*
X-23579Y21230D02*
X-23230Y21836D01*
X-22927Y21661D01*
X-22884Y21502D01*
X-23001Y21300D01*
X-23160Y21257D01*
X-23463Y21432D01*
X-27502Y18737D02*
X-27544Y18896D01*
X-27746Y19013D01*
X-27906Y18970D01*
X-28139Y18566D01*
X-28096Y18407D01*
X-27894Y18290D01*
X-27735Y18333D01*
X-27618Y18535D01*
X-27820Y18652D01*
X-27591Y18115D02*
X-27241Y18721D01*
X-27187Y17882D01*
X-26837Y18488D01*
X-26635Y18372D02*
X-26985Y17766D01*
X-26682Y17591D01*
X-26523Y17633D01*
X-26290Y18037D01*
X-26332Y18197D01*
X-26635Y18372D01*
X-27086Y20768D02*
X-26682Y20535D01*
X-26768Y20854D02*
X-27001Y20450D01*
X-26364Y20620D02*
X-26204Y20663D01*
X-26002Y20546D01*
X-25960Y20387D01*
X-26018Y20286D01*
X-26177Y20243D01*
X-26278Y20302D01*
X-26177Y20243D01*
X-26135Y20084D01*
X-26193Y19983D01*
X-26352Y19940D01*
X-26554Y20057D01*
X-26597Y20216D01*
X-25699Y20372D02*
X-25933Y19968D01*
X-25847Y19649D01*
X-25529Y19734D01*
X-25295Y20138D01*
X-25152Y19921D02*
X-24992Y19963D01*
X-24790Y19847D01*
X-24748Y19687D01*
X-24806Y19586D01*
X-24965Y19544D01*
X-25066Y19602D01*
X-24965Y19544D01*
X-24923Y19384D01*
X-24981Y19283D01*
X-25140Y19241D01*
X-25342Y19357D01*
X-25385Y19517D01*
X-15559Y-3481D02*
X-15676Y-3364D01*
X-15909D01*
X-16026Y-3481D01*
Y-3947D01*
X-15909Y-4064D01*
X-15676D01*
X-15559Y-3947D01*
Y-3714D01*
X-15793D01*
X-15326Y-4064D02*
Y-3364D01*
X-14860Y-4064D01*
Y-3364D01*
X-14626D02*
Y-4064D01*
X-14276D01*
X-14160Y-3947D01*
Y-3481D01*
X-14276Y-3364D01*
X-14626D01*
X-16026Y-6637D02*
Y-5937D01*
X-15676D01*
X-15559Y-6054D01*
Y-6287D01*
X-15676Y-6403D01*
X-16026D01*
X-15793D02*
X-15559Y-6637D01*
X-15326Y-5937D02*
X-14860Y-6637D01*
Y-5937D02*
X-15326Y-6637D01*
X-16026Y-8510D02*
X-15559D01*
X-15793D01*
Y-9209D01*
X-15326Y-8510D02*
X-14860Y-9209D01*
Y-8510D02*
X-15326Y-9209D01*
X-15559Y-11082D02*
X-16026D01*
Y-11432D01*
X-15793Y-11315D01*
X-15676D01*
X-15559Y-11432D01*
Y-11665D01*
X-15676Y-11782D01*
X-15909D01*
X-16026Y-11665D01*
X-15326Y-11082D02*
Y-11549D01*
X-15093Y-11782D01*
X-14860Y-11549D01*
Y-11082D01*
X-15559Y-13772D02*
X-15676Y-13655D01*
X-15909D01*
X-16026Y-13772D01*
Y-14238D01*
X-15909Y-14355D01*
X-15676D01*
X-15559Y-14238D01*
Y-14005D01*
X-15793D01*
X-15326Y-14355D02*
Y-13655D01*
X-14860Y-14355D01*
Y-13655D01*
X-14626D02*
Y-14355D01*
X-14276D01*
X-14160Y-14238D01*
Y-13772D01*
X-14276Y-13655D01*
X-14626D01*
X-16026Y-16811D02*
Y-16111D01*
X-15793Y-16344D01*
X-15559Y-16111D01*
Y-16811D01*
X-14976Y-16111D02*
X-15210D01*
X-15326Y-16228D01*
Y-16694D01*
X-15210Y-16811D01*
X-14976D01*
X-14860Y-16694D01*
Y-16228D01*
X-14976Y-16111D01*
X-14626D02*
X-14160D01*
X-14393D01*
Y-16811D01*
X-13577Y-16111D02*
X-13810D01*
X-13927Y-16228D01*
Y-16694D01*
X-13810Y-16811D01*
X-13577D01*
X-13460Y-16694D01*
Y-16228D01*
X-13577Y-16111D01*
X-13227Y-16927D02*
X-12760D01*
X-12527Y-16811D02*
Y-16111D01*
X-12177D01*
X-12061Y-16228D01*
Y-16461D01*
X-12177Y-16577D01*
X-12527D01*
X-11827Y-16111D02*
Y-16811D01*
X-11594Y-16577D01*
X-11361Y-16811D01*
Y-16111D01*
X-11127Y-16811D02*
Y-16111D01*
X-10894Y-16344D01*
X-10661Y-16111D01*
Y-16811D01*
X-16026Y-18800D02*
Y-19267D01*
X-15793Y-19500D01*
X-15559Y-19267D01*
Y-18800D01*
X-15326Y-19500D02*
Y-18800D01*
X-15093Y-19033D01*
X-14860Y-18800D01*
Y-19500D01*
X-14276Y-18800D02*
X-14510D01*
X-14626Y-18917D01*
Y-19383D01*
X-14510Y-19500D01*
X-14276D01*
X-14160Y-19383D01*
Y-18917D01*
X-14276Y-18800D01*
X-13927D02*
X-13460D01*
X-13693D01*
Y-19500D01*
X-12877Y-18800D02*
X-13110D01*
X-13227Y-18917D01*
Y-19383D01*
X-13110Y-19500D01*
X-12877D01*
X-12760Y-19383D01*
Y-18917D01*
X-12877Y-18800D01*
X-38517Y9199D02*
X-38400Y9316D01*
Y9549D01*
X-38517Y9666D01*
X-38983D01*
X-39100Y9549D01*
Y9316D01*
X-38983Y9199D01*
X-39100Y8849D02*
Y8616D01*
X-38983Y8499D01*
X-38750D01*
X-38633Y8616D01*
Y8849D01*
X-38750Y8966D01*
X-38983D01*
X-39100Y8849D01*
Y8266D02*
X-38633D01*
Y7916D01*
X-38750Y7799D01*
X-39100D01*
X-38517Y7450D02*
X-38633D01*
Y7566D01*
Y7333D01*
Y7450D01*
X-38983D01*
X-39100Y7333D01*
X-38633Y6983D02*
X-39100D01*
X-38867D01*
X-38750Y6866D01*
X-38633Y6750D01*
Y6633D01*
X-39100Y6167D02*
Y5933D01*
X-38983Y5817D01*
X-38750D01*
X-38633Y5933D01*
Y6167D01*
X-38750Y6283D01*
X-38983D01*
X-39100Y6167D01*
Y5583D02*
Y5350D01*
Y5467D01*
X-38400D01*
Y5583D01*
Y4301D02*
X-39100D01*
Y3951D01*
X-38983Y3834D01*
X-38867D01*
X-38750Y3951D01*
Y4301D01*
Y3951D01*
X-38633Y3834D01*
X-38517D01*
X-38400Y3951D01*
Y4301D01*
X-39100Y3484D02*
Y3251D01*
X-38983Y3134D01*
X-38750D01*
X-38633Y3251D01*
Y3484D01*
X-38750Y3601D01*
X-38983D01*
X-39100Y3484D01*
X-38633Y2784D02*
Y2551D01*
X-38750Y2435D01*
X-39100D01*
Y2784D01*
X-38983Y2901D01*
X-38867Y2784D01*
Y2435D01*
X-38633Y2201D02*
X-39100D01*
X-38867D01*
X-38750Y2085D01*
X-38633Y1968D01*
Y1851D01*
X-38400Y1035D02*
X-39100D01*
Y1385D01*
X-38983Y1501D01*
X-38750D01*
X-38633Y1385D01*
Y1035D01*
X-38750Y102D02*
Y-365D01*
X-38633Y-1298D02*
X-39100D01*
X-38867D01*
X-38750Y-1414D01*
X-38633Y-1531D01*
Y-1648D01*
X-39100Y-2347D02*
Y-2114D01*
X-38983Y-1997D01*
X-38750D01*
X-38633Y-2114D01*
Y-2347D01*
X-38750Y-2464D01*
X-38867D01*
Y-1997D01*
X-38633Y-2697D02*
X-39100Y-2930D01*
X-38633Y-3164D01*
X-38517Y-3397D02*
X-38400Y-3514D01*
Y-3747D01*
X-38517Y-3863D01*
X-38983D01*
X-39100Y-3747D01*
Y-3514D01*
X-38983Y-3397D01*
X-38517D01*
X-39100Y-4097D02*
X-38983D01*
Y-4213D01*
X-39100D01*
Y-4097D01*
Y-4680D02*
Y-4913D01*
Y-4797D01*
X-38400D01*
X-38517Y-4680D01*
D12*
X-18099Y-91D02*
X-18607D01*
X-18353D01*
Y-1361D01*
X-18607Y-1615D01*
X-18861D01*
X-19115Y-1361D01*
X-16576Y-1615D02*
X-17591D01*
X-16576Y-599D01*
Y-345D01*
X-16830Y-91D01*
X-17337D01*
X-17591Y-345D01*
X-32806Y-16373D02*
X-33314D01*
X-33060D01*
Y-17642D01*
X-33314Y-17896D01*
X-33567D01*
X-33821Y-17642D01*
X-32298Y-17896D02*
X-31790D01*
X-32044D01*
Y-16373D01*
X-32298Y-16627D01*
X-6350Y9652D02*
X-6604Y9906D01*
X-7112D01*
X-7366Y9652D01*
Y8636D01*
X-7112Y8382D01*
X-6604D01*
X-6350Y8636D01*
X-5081Y9906D02*
X-5589D01*
X-5842Y9652D01*
Y8636D01*
X-5589Y8382D01*
X-5081D01*
X-4827Y8636D01*
Y9652D01*
X-5081Y9906D01*
X-4319Y8382D02*
Y9906D01*
X-3811Y9398D01*
X-3303Y9906D01*
Y8382D01*
X-2795D02*
Y9906D01*
X-2288Y9398D01*
X-1780Y9906D01*
Y8382D01*
X-24484Y33489D02*
X-24992D01*
X-24738D01*
Y32219D01*
X-24992Y31965D01*
X-25246D01*
X-25500Y32219D01*
X-23976Y33235D02*
X-23723Y33489D01*
X-23215D01*
X-22961Y33235D01*
Y32981D01*
X-23215Y32727D01*
X-23469D01*
X-23215D01*
X-22961Y32473D01*
Y32219D01*
X-23215Y31965D01*
X-23723D01*
X-23976Y32219D01*
M02*
