G04*
G04 #@! TF.GenerationSoftware,Altium Limited,Altium Designer,20.0.14 (345)*
G04*
G04 Layer_Color=65535*
%FSLAX43Y43*%
%MOMM*%
G71*
G01*
G75*
%ADD10C,0.200*%
%ADD11C,0.254*%
%ADD12C,0.150*%
D10*
X-16730Y-20247D02*
Y-2466D01*
X-19270Y-20247D02*
X-16730D01*
X-19270D02*
Y-2466D01*
X-16730D01*
X-33975Y-21305D02*
X-29575Y-18765D01*
X-33975Y-21305D02*
X-27625Y-32304D01*
X-23225Y-29764D01*
X-29575Y-18765D02*
X-23225Y-29764D01*
X-33975Y20436D02*
X-29575Y17896D01*
X-23225Y28895D01*
X-27625Y31435D02*
X-23225Y28895D01*
X-33975Y20436D02*
X-27625Y31435D01*
D11*
X-7266Y20012D02*
Y18742D01*
X-7012Y18488D01*
X-6504D01*
X-6250Y18742D01*
Y20012D01*
X-5742Y18488D02*
X-5234D01*
X-5488D01*
Y20012D01*
X-5742Y19758D01*
X-18099Y-91D02*
X-18607D01*
X-18353D01*
Y-1361D01*
X-18607Y-1615D01*
X-18861D01*
X-19115Y-1361D01*
X-16576Y-1615D02*
X-17591D01*
X-16576Y-599D01*
Y-345D01*
X-16830Y-91D01*
X-17337D01*
X-17591Y-345D01*
X-32806Y-16373D02*
X-33314D01*
X-33060D01*
Y-17642D01*
X-33314Y-17896D01*
X-33567D01*
X-33821Y-17642D01*
X-32298Y-17896D02*
X-31790D01*
X-32044D01*
Y-16373D01*
X-32298Y-16627D01*
X-24484Y33489D02*
X-24992D01*
X-24738D01*
Y32219D01*
X-24992Y31965D01*
X-25246D01*
X-25500Y32219D01*
X-23976Y33235D02*
X-23723Y33489D01*
X-23215D01*
X-22961Y33235D01*
Y32981D01*
X-23215Y32727D01*
X-23469D01*
X-23215D01*
X-22961Y32473D01*
Y32219D01*
X-23215Y31965D01*
X-23723D01*
X-23976Y32219D01*
D12*
X4727Y18260D02*
X5093D01*
X4893Y17993D01*
X4993D01*
X5060Y17960D01*
X5093Y17927D01*
X5127Y17827D01*
Y17760D01*
X5093Y17660D01*
X5027Y17593D01*
X4927Y17560D01*
X4827D01*
X4727Y17593D01*
X4693Y17627D01*
X4660Y17693D01*
X5283Y18260D02*
X5550Y17560D01*
X5816Y18260D02*
X5550Y17560D01*
X5973Y18260D02*
X6340D01*
X6140Y17993D01*
X6240D01*
X6306Y17960D01*
X6340Y17927D01*
X6373Y17827D01*
Y17760D01*
X6340Y17660D01*
X6273Y17593D01*
X6173Y17560D01*
X6073D01*
X5973Y17593D01*
X5940Y17627D01*
X5906Y17693D01*
X4727Y15720D02*
X5093D01*
X4893Y15453D01*
X4993D01*
X5060Y15420D01*
X5093Y15387D01*
X5127Y15287D01*
Y15220D01*
X5093Y15120D01*
X5027Y15053D01*
X4927Y15020D01*
X4827D01*
X4727Y15053D01*
X4693Y15087D01*
X4660Y15153D01*
X5683Y15620D02*
X5650Y15687D01*
X5550Y15720D01*
X5483D01*
X5383Y15687D01*
X5317Y15587D01*
X5283Y15420D01*
Y15253D01*
X5317Y15120D01*
X5383Y15053D01*
X5483Y15020D01*
X5516D01*
X5616Y15053D01*
X5683Y15120D01*
X5716Y15220D01*
Y15253D01*
X5683Y15353D01*
X5616Y15420D01*
X5516Y15453D01*
X5483D01*
X5383Y15420D01*
X5317Y15353D01*
X5283Y15253D01*
X4727Y13180D02*
X5093D01*
X4893Y12913D01*
X4993D01*
X5060Y12880D01*
X5093Y12847D01*
X5127Y12747D01*
Y12680D01*
X5093Y12580D01*
X5027Y12513D01*
X4927Y12480D01*
X4827D01*
X4727Y12513D01*
X4693Y12547D01*
X4660Y12613D01*
X5750Y13180D02*
X5417Y12480D01*
X5283Y13180D02*
X5750D01*
X4727Y10640D02*
X5093D01*
X4893Y10373D01*
X4993D01*
X5060Y10340D01*
X5093Y10307D01*
X5127Y10207D01*
Y10140D01*
X5093Y10040D01*
X5027Y9973D01*
X4927Y9940D01*
X4827D01*
X4727Y9973D01*
X4693Y10007D01*
X4660Y10073D01*
X5450Y10640D02*
X5350Y10607D01*
X5317Y10540D01*
Y10473D01*
X5350Y10407D01*
X5417Y10373D01*
X5550Y10340D01*
X5650Y10307D01*
X5716Y10240D01*
X5750Y10173D01*
Y10073D01*
X5716Y10007D01*
X5683Y9973D01*
X5583Y9940D01*
X5450D01*
X5350Y9973D01*
X5317Y10007D01*
X5283Y10073D01*
Y10173D01*
X5317Y10240D01*
X5383Y10307D01*
X5483Y10340D01*
X5616Y10373D01*
X5683Y10407D01*
X5716Y10473D01*
Y10540D01*
X5683Y10607D01*
X5583Y10640D01*
X5450D01*
X5127Y8000D02*
X5060Y8067D01*
X4960Y8100D01*
X4827D01*
X4727Y8067D01*
X4660Y8000D01*
Y7933D01*
X4693Y7867D01*
X4727Y7833D01*
X4793Y7800D01*
X4993Y7733D01*
X5060Y7700D01*
X5093Y7667D01*
X5127Y7600D01*
Y7500D01*
X5060Y7433D01*
X4960Y7400D01*
X4827D01*
X4727Y7433D01*
X4660Y7500D01*
X5283Y8100D02*
X5550Y7400D01*
X5816Y8100D02*
X5550Y7400D01*
X5906Y8100D02*
Y7400D01*
Y8100D02*
X6373Y7400D01*
Y8100D02*
Y7400D01*
X4727Y5560D02*
X5093D01*
X4893Y5293D01*
X4993D01*
X5060Y5260D01*
X5093Y5227D01*
X5127Y5127D01*
Y5060D01*
X5093Y4960D01*
X5027Y4893D01*
X4927Y4860D01*
X4827D01*
X4727Y4893D01*
X4693Y4927D01*
X4660Y4993D01*
X5317Y5393D02*
Y5427D01*
X5350Y5493D01*
X5383Y5527D01*
X5450Y5560D01*
X5583D01*
X5650Y5527D01*
X5683Y5493D01*
X5716Y5427D01*
Y5360D01*
X5683Y5293D01*
X5616Y5193D01*
X5283Y4860D01*
X5750D01*
X4727Y3020D02*
X5093D01*
X4893Y2753D01*
X4993D01*
X5060Y2720D01*
X5093Y2687D01*
X5127Y2587D01*
Y2520D01*
X5093Y2420D01*
X5027Y2353D01*
X4927Y2320D01*
X4827D01*
X4727Y2353D01*
X4693Y2387D01*
X4660Y2453D01*
X5350Y3020D02*
X5716D01*
X5516Y2753D01*
X5616D01*
X5683Y2720D01*
X5716Y2687D01*
X5750Y2587D01*
Y2520D01*
X5716Y2420D01*
X5650Y2353D01*
X5550Y2320D01*
X5450D01*
X5350Y2353D01*
X5317Y2387D01*
X5283Y2453D01*
X4693Y313D02*
Y347D01*
X4727Y413D01*
X4760Y447D01*
X4827Y480D01*
X4960D01*
X5027Y447D01*
X5060Y413D01*
X5093Y347D01*
Y280D01*
X5060Y213D01*
X4993Y113D01*
X4660Y-220D01*
X5127D01*
X5683Y480D02*
X5350D01*
X5317Y180D01*
X5350Y213D01*
X5450Y247D01*
X5550D01*
X5650Y213D01*
X5716Y147D01*
X5750Y47D01*
Y-20D01*
X5716Y-120D01*
X5650Y-187D01*
X5550Y-220D01*
X5450D01*
X5350Y-187D01*
X5317Y-153D01*
X5283Y-87D01*
X4693Y-2227D02*
Y-2193D01*
X4727Y-2127D01*
X4760Y-2093D01*
X4827Y-2060D01*
X4960D01*
X5027Y-2093D01*
X5060Y-2127D01*
X5093Y-2193D01*
Y-2260D01*
X5060Y-2327D01*
X4993Y-2427D01*
X4660Y-2760D01*
X5127D01*
X5683Y-2160D02*
X5650Y-2093D01*
X5550Y-2060D01*
X5483D01*
X5383Y-2093D01*
X5317Y-2193D01*
X5283Y-2360D01*
Y-2527D01*
X5317Y-2660D01*
X5383Y-2727D01*
X5483Y-2760D01*
X5516D01*
X5616Y-2727D01*
X5683Y-2660D01*
X5716Y-2560D01*
Y-2527D01*
X5683Y-2427D01*
X5616Y-2360D01*
X5516Y-2327D01*
X5483D01*
X5383Y-2360D01*
X5317Y-2427D01*
X5283Y-2527D01*
X4693Y-4767D02*
Y-4733D01*
X4727Y-4667D01*
X4760Y-4633D01*
X4827Y-4600D01*
X4960D01*
X5027Y-4633D01*
X5060Y-4667D01*
X5093Y-4733D01*
Y-4800D01*
X5060Y-4867D01*
X4993Y-4967D01*
X4660Y-5300D01*
X5127D01*
X5750Y-4600D02*
X5417Y-5300D01*
X5283Y-4600D02*
X5750D01*
X5160Y-7307D02*
X5127Y-7240D01*
X5060Y-7173D01*
X4993Y-7140D01*
X4860D01*
X4793Y-7173D01*
X4727Y-7240D01*
X4693Y-7307D01*
X4660Y-7407D01*
Y-7573D01*
X4693Y-7673D01*
X4727Y-7740D01*
X4793Y-7807D01*
X4860Y-7840D01*
X4993D01*
X5060Y-7807D01*
X5127Y-7740D01*
X5160Y-7673D01*
Y-7573D01*
X4993D02*
X5160D01*
X5320Y-7140D02*
Y-7840D01*
Y-7140D02*
X5786Y-7840D01*
Y-7140D02*
Y-7840D01*
X5980Y-7140D02*
Y-7840D01*
Y-7140D02*
X6213D01*
X6313Y-7173D01*
X6380Y-7240D01*
X6413Y-7307D01*
X6446Y-7407D01*
Y-7573D01*
X6413Y-7673D01*
X6380Y-7740D01*
X6313Y-7807D01*
X6213Y-7840D01*
X5980D01*
X5060Y-9680D02*
X4727D01*
X4693Y-9980D01*
X4727Y-9947D01*
X4827Y-9913D01*
X4927D01*
X5027Y-9947D01*
X5093Y-10013D01*
X5127Y-10113D01*
Y-10180D01*
X5093Y-10280D01*
X5027Y-10347D01*
X4927Y-10380D01*
X4827D01*
X4727Y-10347D01*
X4693Y-10313D01*
X4660Y-10247D01*
X5283Y-9913D02*
X5483Y-10380D01*
X5683Y-9913D02*
X5483Y-10380D01*
X6346Y-9680D02*
Y-10180D01*
X6380Y-10280D01*
X6446Y-10347D01*
X6546Y-10380D01*
X6613D01*
X6713Y-10347D01*
X6780Y-10280D01*
X6813Y-10180D01*
Y-9680D01*
X7473Y-9780D02*
X7406Y-9713D01*
X7306Y-9680D01*
X7173D01*
X7073Y-9713D01*
X7006Y-9780D01*
Y-9847D01*
X7039Y-9913D01*
X7073Y-9947D01*
X7139Y-9980D01*
X7339Y-10047D01*
X7406Y-10080D01*
X7439Y-10113D01*
X7473Y-10180D01*
Y-10280D01*
X7406Y-10347D01*
X7306Y-10380D01*
X7173D01*
X7073Y-10347D01*
X7006Y-10280D01*
X7629Y-9680D02*
Y-10380D01*
Y-9680D02*
X7929D01*
X8029Y-9713D01*
X8063Y-9747D01*
X8096Y-9813D01*
Y-9880D01*
X8063Y-9947D01*
X8029Y-9980D01*
X7929Y-10013D01*
X7629D02*
X7929D01*
X8029Y-10047D01*
X8063Y-10080D01*
X8096Y-10147D01*
Y-10247D01*
X8063Y-10313D01*
X8029Y-10347D01*
X7929Y-10380D01*
X7629D01*
X-10513Y-9680D02*
X-10147D01*
X-10347Y-9947D01*
X-10247D01*
X-10180Y-9980D01*
X-10147Y-10013D01*
X-10113Y-10113D01*
Y-10180D01*
X-10147Y-10280D01*
X-10213Y-10347D01*
X-10313Y-10380D01*
X-10413D01*
X-10513Y-10347D01*
X-10547Y-10313D01*
X-10580Y-10247D01*
X-9957Y-9680D02*
X-9690Y-10380D01*
X-9424Y-9680D02*
X-9690Y-10380D01*
X-9267Y-9680D02*
X-8900D01*
X-9100Y-9947D01*
X-9000D01*
X-8934Y-9980D01*
X-8900Y-10013D01*
X-8867Y-10113D01*
Y-10180D01*
X-8900Y-10280D01*
X-8967Y-10347D01*
X-9067Y-10380D01*
X-9167D01*
X-9267Y-10347D01*
X-9300Y-10313D01*
X-9334Y-10247D01*
X-10080Y-7307D02*
X-10113Y-7240D01*
X-10180Y-7173D01*
X-10247Y-7140D01*
X-10380D01*
X-10447Y-7173D01*
X-10513Y-7240D01*
X-10547Y-7307D01*
X-10580Y-7407D01*
Y-7573D01*
X-10547Y-7673D01*
X-10513Y-7740D01*
X-10447Y-7807D01*
X-10380Y-7840D01*
X-10247D01*
X-10180Y-7807D01*
X-10113Y-7740D01*
X-10080Y-7673D01*
Y-7573D01*
X-10247D02*
X-10080D01*
X-9920Y-7140D02*
Y-7840D01*
Y-7140D02*
X-9454Y-7840D01*
Y-7140D02*
Y-7840D01*
X-9260Y-7140D02*
Y-7840D01*
Y-7140D02*
X-9027D01*
X-8927Y-7173D01*
X-8860Y-7240D01*
X-8827Y-7307D01*
X-8794Y-7407D01*
Y-7573D01*
X-8827Y-7673D01*
X-8860Y-7740D01*
X-8927Y-7807D01*
X-9027Y-7840D01*
X-9260D01*
X-10080Y-4767D02*
X-10113Y-4700D01*
X-10180Y-4633D01*
X-10247Y-4600D01*
X-10380D01*
X-10447Y-4633D01*
X-10513Y-4700D01*
X-10547Y-4767D01*
X-10580Y-4867D01*
Y-5033D01*
X-10547Y-5133D01*
X-10513Y-5200D01*
X-10447Y-5267D01*
X-10380Y-5300D01*
X-10247D01*
X-10180Y-5267D01*
X-10113Y-5200D01*
X-10080Y-5133D01*
Y-5033D01*
X-10247D02*
X-10080D01*
X-9920Y-4600D02*
Y-5300D01*
Y-4600D02*
X-9454Y-5300D01*
Y-4600D02*
Y-5300D01*
X-9260Y-4600D02*
Y-5300D01*
Y-4600D02*
X-9027D01*
X-8927Y-4633D01*
X-8860Y-4700D01*
X-8827Y-4767D01*
X-8794Y-4867D01*
Y-5033D01*
X-8827Y-5133D01*
X-8860Y-5200D01*
X-8927Y-5267D01*
X-9027Y-5300D01*
X-9260D01*
X-10580Y-2193D02*
X-10513Y-2160D01*
X-10413Y-2060D01*
Y-2760D01*
X-10033Y-2227D02*
Y-2193D01*
X-10000Y-2127D01*
X-9967Y-2093D01*
X-9900Y-2060D01*
X-9767D01*
X-9700Y-2093D01*
X-9667Y-2127D01*
X-9634Y-2193D01*
Y-2260D01*
X-9667Y-2327D01*
X-9734Y-2427D01*
X-10067Y-2760D01*
X-9600D01*
X-10580Y347D02*
X-10513Y380D01*
X-10413Y480D01*
Y-220D01*
X-10000Y480D02*
X-9634D01*
X-9833Y213D01*
X-9734D01*
X-9667Y180D01*
X-9634Y147D01*
X-9600Y47D01*
Y-20D01*
X-9634Y-120D01*
X-9700Y-187D01*
X-9800Y-220D01*
X-9900D01*
X-10000Y-187D01*
X-10033Y-153D01*
X-10067Y-87D01*
X-10580Y2887D02*
X-10513Y2920D01*
X-10413Y3020D01*
Y2320D01*
X-9667Y3020D02*
X-10000D01*
X-10033Y2720D01*
X-10000Y2753D01*
X-9900Y2787D01*
X-9800D01*
X-9700Y2753D01*
X-9634Y2687D01*
X-9600Y2587D01*
Y2520D01*
X-9634Y2420D01*
X-9700Y2353D01*
X-9800Y2320D01*
X-9900D01*
X-10000Y2353D01*
X-10033Y2387D01*
X-10067Y2453D01*
X-10397Y5393D02*
Y5427D01*
X-10363Y5493D01*
X-10330Y5527D01*
X-10263Y5560D01*
X-10130D01*
X-10063Y5527D01*
X-10030Y5493D01*
X-9997Y5427D01*
Y5360D01*
X-10030Y5293D01*
X-10097Y5193D01*
X-10430Y4860D01*
X-9963D01*
X-10580Y7967D02*
X-10513Y8000D01*
X-10413Y8100D01*
Y7400D01*
X-9600Y8100D02*
X-9933Y7400D01*
X-10067Y8100D02*
X-9600D01*
X-10547Y10473D02*
Y10507D01*
X-10513Y10573D01*
X-10480Y10607D01*
X-10413Y10640D01*
X-10280D01*
X-10213Y10607D01*
X-10180Y10573D01*
X-10147Y10507D01*
Y10440D01*
X-10180Y10373D01*
X-10247Y10273D01*
X-10580Y9940D01*
X-10113D01*
X-9923Y10473D02*
Y10507D01*
X-9890Y10573D01*
X-9857Y10607D01*
X-9790Y10640D01*
X-9657D01*
X-9590Y10607D01*
X-9557Y10573D01*
X-9524Y10507D01*
Y10440D01*
X-9557Y10373D01*
X-9624Y10273D01*
X-9957Y9940D01*
X-9490D01*
X-10547Y13013D02*
Y13047D01*
X-10513Y13113D01*
X-10480Y13147D01*
X-10413Y13180D01*
X-10280D01*
X-10213Y13147D01*
X-10180Y13113D01*
X-10147Y13047D01*
Y12980D01*
X-10180Y12913D01*
X-10247Y12813D01*
X-10580Y12480D01*
X-10113D01*
X-9957Y13047D02*
X-9890Y13080D01*
X-9790Y13180D01*
Y12480D01*
X-10080Y15553D02*
X-10113Y15620D01*
X-10180Y15687D01*
X-10247Y15720D01*
X-10380D01*
X-10447Y15687D01*
X-10513Y15620D01*
X-10547Y15553D01*
X-10580Y15453D01*
Y15287D01*
X-10547Y15187D01*
X-10513Y15120D01*
X-10447Y15053D01*
X-10380Y15020D01*
X-10247D01*
X-10180Y15053D01*
X-10113Y15120D01*
X-10080Y15187D01*
Y15287D01*
X-10247D02*
X-10080D01*
X-9920Y15720D02*
Y15020D01*
Y15720D02*
X-9454Y15020D01*
Y15720D02*
Y15020D01*
X-9260Y15720D02*
Y15020D01*
Y15720D02*
X-9027D01*
X-8927Y15687D01*
X-8860Y15620D01*
X-8827Y15553D01*
X-8794Y15453D01*
Y15287D01*
X-8827Y15187D01*
X-8860Y15120D01*
X-8927Y15053D01*
X-9027Y15020D01*
X-9260D01*
X-10080Y18093D02*
X-10113Y18160D01*
X-10180Y18227D01*
X-10247Y18260D01*
X-10380D01*
X-10447Y18227D01*
X-10513Y18160D01*
X-10547Y18093D01*
X-10580Y17993D01*
Y17827D01*
X-10547Y17727D01*
X-10513Y17660D01*
X-10447Y17593D01*
X-10380Y17560D01*
X-10247D01*
X-10180Y17593D01*
X-10113Y17660D01*
X-10080Y17727D01*
Y17827D01*
X-10247D02*
X-10080D01*
X-9920Y18260D02*
Y17560D01*
Y18260D02*
X-9454Y17560D01*
Y18260D02*
Y17560D01*
X-9260Y18260D02*
Y17560D01*
Y18260D02*
X-9027D01*
X-8927Y18227D01*
X-8860Y18160D01*
X-8827Y18093D01*
X-8794Y17993D01*
Y17827D01*
X-8827Y17727D01*
X-8860Y17660D01*
X-8927Y17593D01*
X-9027Y17560D01*
X-9260D01*
X-28232Y-19307D02*
X-28189Y-19148D01*
X-27987Y-19031D01*
X-27828Y-19074D01*
X-27769Y-19175D01*
X-27812Y-19334D01*
X-27913Y-19392D01*
X-27812Y-19334D01*
X-27653Y-19377D01*
X-27594Y-19478D01*
X-27637Y-19637D01*
X-27839Y-19754D01*
X-27998Y-19711D01*
X-27684Y-18856D02*
X-27451Y-19260D01*
X-27132Y-19345D01*
X-27047Y-19027D01*
X-27280Y-18623D01*
X-27020Y-18607D02*
X-26977Y-18448D01*
X-26775Y-18331D01*
X-26616Y-18374D01*
X-26557Y-18475D01*
X-26600Y-18634D01*
X-26701Y-18693D01*
X-26600Y-18634D01*
X-26441Y-18677D01*
X-26382Y-18778D01*
X-26425Y-18937D01*
X-26627Y-19054D01*
X-26786Y-19011D01*
X-26962Y-21339D02*
X-26919Y-21180D01*
X-26717Y-21063D01*
X-26558Y-21106D01*
X-26499Y-21207D01*
X-26542Y-21366D01*
X-26643Y-21424D01*
X-26542Y-21366D01*
X-26383Y-21409D01*
X-26324Y-21510D01*
X-26367Y-21669D01*
X-26569Y-21786D01*
X-26728Y-21743D01*
X-26414Y-20888D02*
X-26181Y-21292D01*
X-25862Y-21377D01*
X-25777Y-21059D01*
X-26010Y-20655D01*
X-25750Y-20639D02*
X-25707Y-20480D01*
X-25505Y-20363D01*
X-25346Y-20406D01*
X-25287Y-20507D01*
X-25330Y-20666D01*
X-25431Y-20725D01*
X-25330Y-20666D01*
X-25171Y-20709D01*
X-25112Y-20810D01*
X-25155Y-20969D01*
X-25357Y-21086D01*
X-25516Y-21043D01*
X-34744Y-22783D02*
X-35148Y-23016D01*
X-34973Y-23319D01*
X-34829Y-23101D01*
X-34728Y-23043D01*
X-34569Y-23086D01*
X-34452Y-23288D01*
X-34495Y-23447D01*
X-34697Y-23564D01*
X-34856Y-23521D01*
X-34542Y-22666D02*
X-34309Y-23070D01*
X-33990Y-23155D01*
X-33905Y-22837D01*
X-34138Y-22433D01*
X-33474Y-24826D02*
X-33878Y-25059D01*
X-33703Y-25362D01*
X-33559Y-25145D01*
X-33458Y-25086D01*
X-33299Y-25129D01*
X-33182Y-25331D01*
X-33225Y-25490D01*
X-33427Y-25607D01*
X-33586Y-25564D01*
X-33272Y-24709D02*
X-33039Y-25114D01*
X-32720Y-25199D01*
X-32635Y-24880D01*
X-32868Y-24476D01*
X-31040Y31281D02*
X-30690Y31887D01*
X-30387Y31712D01*
X-30345Y31553D01*
X-30461Y31351D01*
X-30621Y31308D01*
X-30924Y31483D01*
X-30084Y31537D02*
X-30434Y30931D01*
X-30259Y31234D01*
X-29855Y31001D01*
X-29680Y31304D01*
X-30030Y30698D01*
X-29537Y31086D02*
X-29377Y31129D01*
X-29175Y31012D01*
X-29133Y30853D01*
X-29191Y30752D01*
X-29350Y30709D01*
X-29451Y30768D01*
X-29350Y30709D01*
X-29307Y30550D01*
X-29366Y30449D01*
X-29525Y30406D01*
X-29727Y30523D01*
X-29770Y30682D01*
X-31286Y29776D02*
X-31690Y30009D01*
X-32040Y29403D01*
X-31636Y29170D01*
X-31865Y29706D02*
X-31663Y29590D01*
X-31434Y29053D02*
X-31084Y29659D01*
X-31030Y28820D01*
X-30680Y29426D01*
X-30537Y29208D02*
X-30377Y29251D01*
X-30175Y29135D01*
X-30133Y28975D01*
X-30191Y28874D01*
X-30350Y28831D01*
X-30451Y28890D01*
X-30350Y28831D01*
X-30307Y28672D01*
X-30366Y28571D01*
X-30525Y28528D01*
X-30727Y28645D01*
X-30770Y28804D01*
X-23040Y27304D02*
X-22690Y27910D01*
X-22387Y27735D01*
X-22345Y27576D01*
X-22461Y27374D01*
X-22621Y27331D01*
X-22924Y27506D01*
X-22084Y27560D02*
X-22434Y26954D01*
X-22259Y27257D01*
X-21855Y27024D01*
X-21680Y27327D01*
X-22030Y26721D01*
X-21828Y26604D02*
X-21626Y26488D01*
X-21727Y26546D01*
X-21377Y27152D01*
X-21537Y27110D01*
X-23786Y25377D02*
X-24190Y25610D01*
X-24540Y25004D01*
X-24136Y24771D01*
X-24365Y25307D02*
X-24163Y25190D01*
X-23934Y24654D02*
X-23584Y25260D01*
X-23530Y24421D01*
X-23180Y25027D01*
X-23328Y24304D02*
X-23126Y24187D01*
X-23227Y24246D01*
X-22877Y24852D01*
X-23037Y24809D01*
X-33540Y27203D02*
X-33190Y27810D01*
X-32887Y27635D01*
X-32845Y27475D01*
X-32961Y27273D01*
X-33121Y27231D01*
X-33424Y27406D01*
X-32584Y27460D02*
X-32934Y26854D01*
X-32759Y27157D01*
X-32355Y26923D01*
X-32180Y27226D01*
X-32530Y26620D01*
X-31924Y26270D02*
X-32328Y26504D01*
X-31691Y26674D01*
X-31633Y26775D01*
X-31675Y26935D01*
X-31877Y27051D01*
X-32037Y27009D01*
X-34286Y25377D02*
X-34690Y25610D01*
X-35040Y25004D01*
X-34636Y24771D01*
X-34865Y25307D02*
X-34663Y25190D01*
X-34434Y24654D02*
X-34084Y25260D01*
X-34030Y24421D01*
X-33680Y25027D01*
X-33424Y24071D02*
X-33828Y24304D01*
X-33191Y24475D01*
X-33133Y24576D01*
X-33175Y24735D01*
X-33377Y24852D01*
X-33537Y24809D01*
X-25090Y23045D02*
X-25133Y23204D01*
X-25335Y23321D01*
X-25494Y23278D01*
X-25553Y23177D01*
X-25510Y23018D01*
X-25308Y22901D01*
X-25265Y22742D01*
X-25324Y22641D01*
X-25483Y22598D01*
X-25685Y22715D01*
X-25728Y22874D01*
X-25180Y22423D02*
X-24978Y22307D01*
X-25079Y22365D01*
X-24729Y22971D01*
X-24830Y23029D01*
X-24372Y21957D02*
X-24574Y22073D01*
X-24617Y22233D01*
X-24500Y22435D01*
X-24341Y22478D01*
X-24139Y22361D01*
X-24096Y22202D01*
X-24154Y22101D01*
X-24558Y22334D01*
X-23766Y21607D02*
X-23968Y21724D01*
X-24011Y21883D01*
X-23894Y22085D01*
X-23735Y22128D01*
X-23533Y22011D01*
X-23490Y21852D01*
X-23548Y21751D01*
X-23952Y21984D01*
X-23579Y21230D02*
X-23230Y21836D01*
X-22927Y21661D01*
X-22884Y21502D01*
X-23001Y21300D01*
X-23160Y21257D01*
X-23463Y21432D01*
X-27502Y18737D02*
X-27544Y18896D01*
X-27746Y19013D01*
X-27906Y18970D01*
X-28139Y18566D01*
X-28096Y18407D01*
X-27894Y18290D01*
X-27735Y18333D01*
X-27618Y18535D01*
X-27820Y18652D01*
X-27591Y18115D02*
X-27241Y18721D01*
X-27187Y17882D01*
X-26837Y18488D01*
X-26635Y18372D02*
X-26985Y17766D01*
X-26682Y17591D01*
X-26523Y17633D01*
X-26290Y18037D01*
X-26332Y18197D01*
X-26635Y18372D01*
X-27086Y20768D02*
X-26682Y20535D01*
X-26768Y20854D02*
X-27001Y20450D01*
X-26364Y20620D02*
X-26204Y20663D01*
X-26002Y20546D01*
X-25960Y20387D01*
X-26018Y20286D01*
X-26177Y20243D01*
X-26278Y20302D01*
X-26177Y20243D01*
X-26135Y20084D01*
X-26193Y19983D01*
X-26352Y19940D01*
X-26554Y20057D01*
X-26597Y20216D01*
X-25699Y20372D02*
X-25933Y19968D01*
X-25847Y19649D01*
X-25529Y19734D01*
X-25295Y20138D01*
X-25152Y19921D02*
X-24992Y19963D01*
X-24790Y19847D01*
X-24748Y19687D01*
X-24806Y19586D01*
X-24965Y19544D01*
X-25066Y19602D01*
X-24965Y19544D01*
X-24923Y19384D01*
X-24981Y19283D01*
X-25140Y19241D01*
X-25342Y19357D01*
X-25385Y19517D01*
X-15559Y-3481D02*
X-15676Y-3364D01*
X-15909D01*
X-16026Y-3481D01*
Y-3947D01*
X-15909Y-4064D01*
X-15676D01*
X-15559Y-3947D01*
Y-3714D01*
X-15793D01*
X-15326Y-4064D02*
Y-3364D01*
X-14860Y-4064D01*
Y-3364D01*
X-14626D02*
Y-4064D01*
X-14276D01*
X-14160Y-3947D01*
Y-3481D01*
X-14276Y-3364D01*
X-14626D01*
X-16026Y-6637D02*
Y-5937D01*
X-15676D01*
X-15559Y-6054D01*
Y-6287D01*
X-15676Y-6403D01*
X-16026D01*
X-15793D02*
X-15559Y-6637D01*
X-15326Y-5937D02*
X-14860Y-6637D01*
Y-5937D02*
X-15326Y-6637D01*
X-16026Y-8510D02*
X-15559D01*
X-15793D01*
Y-9209D01*
X-15326Y-8510D02*
X-14860Y-9209D01*
Y-8510D02*
X-15326Y-9209D01*
X-15559Y-11082D02*
X-16026D01*
Y-11432D01*
X-15793Y-11315D01*
X-15676D01*
X-15559Y-11432D01*
Y-11665D01*
X-15676Y-11782D01*
X-15909D01*
X-16026Y-11665D01*
X-15326Y-11082D02*
Y-11549D01*
X-15093Y-11782D01*
X-14860Y-11549D01*
Y-11082D01*
X-15559Y-13772D02*
X-15676Y-13655D01*
X-15909D01*
X-16026Y-13772D01*
Y-14238D01*
X-15909Y-14355D01*
X-15676D01*
X-15559Y-14238D01*
Y-14005D01*
X-15793D01*
X-15326Y-14355D02*
Y-13655D01*
X-14860Y-14355D01*
Y-13655D01*
X-14626D02*
Y-14355D01*
X-14276D01*
X-14160Y-14238D01*
Y-13772D01*
X-14276Y-13655D01*
X-14626D01*
X-16026Y-16811D02*
Y-16111D01*
X-15793Y-16344D01*
X-15559Y-16111D01*
Y-16811D01*
X-14976Y-16111D02*
X-15210D01*
X-15326Y-16228D01*
Y-16694D01*
X-15210Y-16811D01*
X-14976D01*
X-14860Y-16694D01*
Y-16228D01*
X-14976Y-16111D01*
X-14626D02*
X-14160D01*
X-14393D01*
Y-16811D01*
X-13577Y-16111D02*
X-13810D01*
X-13927Y-16228D01*
Y-16694D01*
X-13810Y-16811D01*
X-13577D01*
X-13460Y-16694D01*
Y-16228D01*
X-13577Y-16111D01*
X-13227Y-16927D02*
X-12760D01*
X-12527Y-16811D02*
Y-16111D01*
X-12177D01*
X-12061Y-16228D01*
Y-16461D01*
X-12177Y-16577D01*
X-12527D01*
X-11827Y-16111D02*
Y-16811D01*
X-11594Y-16577D01*
X-11361Y-16811D01*
Y-16111D01*
X-11127Y-16811D02*
Y-16111D01*
X-10894Y-16344D01*
X-10661Y-16111D01*
Y-16811D01*
X-16026Y-18800D02*
Y-19267D01*
X-15793Y-19500D01*
X-15559Y-19267D01*
Y-18800D01*
X-15326Y-19500D02*
Y-18800D01*
X-15093Y-19033D01*
X-14860Y-18800D01*
Y-19500D01*
X-14276Y-18800D02*
X-14510D01*
X-14626Y-18917D01*
Y-19383D01*
X-14510Y-19500D01*
X-14276D01*
X-14160Y-19383D01*
Y-18917D01*
X-14276Y-18800D01*
X-13927D02*
X-13460D01*
X-13693D01*
Y-19500D01*
X-12877Y-18800D02*
X-13110D01*
X-13227Y-18917D01*
Y-19383D01*
X-13110Y-19500D01*
X-12877D01*
X-12760Y-19383D01*
Y-18917D01*
X-12877Y-18800D01*
X-38517Y9199D02*
X-38400Y9316D01*
Y9549D01*
X-38517Y9666D01*
X-38983D01*
X-39100Y9549D01*
Y9316D01*
X-38983Y9199D01*
X-39100Y8849D02*
Y8616D01*
X-38983Y8499D01*
X-38750D01*
X-38633Y8616D01*
Y8849D01*
X-38750Y8966D01*
X-38983D01*
X-39100Y8849D01*
Y8266D02*
X-38633D01*
Y7916D01*
X-38750Y7799D01*
X-39100D01*
X-38517Y7450D02*
X-38633D01*
Y7566D01*
Y7333D01*
Y7450D01*
X-38983D01*
X-39100Y7333D01*
X-38633Y6983D02*
X-39100D01*
X-38867D01*
X-38750Y6866D01*
X-38633Y6750D01*
Y6633D01*
X-39100Y6167D02*
Y5933D01*
X-38983Y5817D01*
X-38750D01*
X-38633Y5933D01*
Y6167D01*
X-38750Y6283D01*
X-38983D01*
X-39100Y6167D01*
Y5583D02*
Y5350D01*
Y5467D01*
X-38400D01*
Y5583D01*
Y4301D02*
X-39100D01*
Y3951D01*
X-38983Y3834D01*
X-38867D01*
X-38750Y3951D01*
Y4301D01*
Y3951D01*
X-38633Y3834D01*
X-38517D01*
X-38400Y3951D01*
Y4301D01*
X-39100Y3484D02*
Y3251D01*
X-38983Y3134D01*
X-38750D01*
X-38633Y3251D01*
Y3484D01*
X-38750Y3601D01*
X-38983D01*
X-39100Y3484D01*
X-38633Y2784D02*
Y2551D01*
X-38750Y2435D01*
X-39100D01*
Y2784D01*
X-38983Y2901D01*
X-38867Y2784D01*
Y2435D01*
X-38633Y2201D02*
X-39100D01*
X-38867D01*
X-38750Y2085D01*
X-38633Y1968D01*
Y1851D01*
X-38400Y1035D02*
X-39100D01*
Y1385D01*
X-38983Y1501D01*
X-38750D01*
X-38633Y1385D01*
Y1035D01*
X-38750Y102D02*
Y-365D01*
X-38633Y-1298D02*
X-39100D01*
X-38867D01*
X-38750Y-1414D01*
X-38633Y-1531D01*
Y-1648D01*
X-39100Y-2347D02*
Y-2114D01*
X-38983Y-1997D01*
X-38750D01*
X-38633Y-2114D01*
Y-2347D01*
X-38750Y-2464D01*
X-38867D01*
Y-1997D01*
X-38633Y-2697D02*
X-39100Y-2930D01*
X-38633Y-3164D01*
X-38517Y-3397D02*
X-38400Y-3514D01*
Y-3747D01*
X-38517Y-3863D01*
X-38983D01*
X-39100Y-3747D01*
Y-3514D01*
X-38983Y-3397D01*
X-38517D01*
X-39100Y-4097D02*
X-38983D01*
Y-4213D01*
X-39100D01*
Y-4097D01*
Y-5146D02*
Y-4680D01*
X-38633Y-5146D01*
X-38517D01*
X-38400Y-5030D01*
Y-4797D01*
X-38517Y-4680D01*
M02*
