M48
;Layer_Color=9474304
;FILE_FORMAT=4:4
METRIC
;TYPE=PLATED
T1F00S00C0.6000
T2F00S00C1.0160
T3F00S00C1.1000
T4F00S00C1.1430
T5F00S00C3.0000
%
T01
X-00235000Y-00188923
X-00318759Y-00174107
X-00185000Y00004653
X-00217500Y00065000
X-00212500Y00102500
X-00237500Y00180000
X-00260533Y00206967
X-00180000Y00190000
X-00147500Y00167500
X-00155000Y00148700
X-00002500Y00150000
X-00020000Y00127500
X00010000Y00235000
X-00167500Y00280000
T02
X00108600Y-00105300
Y-00079900
Y-00054500
Y-00029100
Y-00003700
Y00021700
Y00047100
Y00072500
Y00097900
Y00123300
Y00148700
Y00174100
T03
X-00249601Y-00292991
X-00180000Y-00189764
X-00300401Y-00205003
X-00287701Y-00227000
X-00275002Y-00248997
X-00262302Y-00270994
X-00284298Y-00283694
X-00296999Y-00261697
X-00309699Y-00239700
X-00322398Y-00217703
X-00271598Y-00305691
X-00300401Y00196309
X-00322398Y00209009
X-00180000Y-00037364
Y-00062764
Y-00088164
Y-00113564
Y-00138964
Y-00164364
X-00249601Y00284297
X-00271598Y00296997
X-00284298Y00275000
X-00296999Y00253003
X-00309699Y00231006
X-00287701Y00218306
X-00275002Y00240303
X-00262302Y00262300
T04
X-00120000Y-00105300
Y-00079900
Y-00054500
Y-00029100
Y-00003700
Y00021700
Y00047100
Y00072500
Y00097900
Y00123300
Y00148700
Y00174100
T05
X-00113560Y-00233567
X-00360000Y00004653
X-00113560Y00242873
M30
