M48
;Layer_Color=9474304
;FILE_FORMAT=4:4
METRIC
;TYPE=PLATED
T1F00S00C0.3000
T2F00S00C0.6000
T3F00S00C0.6750
T4F00S00C1.1000
T5F00S00C3.0000
%
T01
X-00146636Y-00104327
X-00137655Y-00095347
X-00115000Y-00096899
T02
X-00235000Y-00188923
X-00318759Y-00174107
T03
X-00059810Y-00037257
Y-00024557
Y-00011857
Y00000843
Y00013543
Y00026243
Y00038943
Y00051643
X-00047110
Y00038943
Y00026243
Y00013543
Y00000843
Y-00011857
Y-00024557
Y-00037257
T04
X-00249601Y-00292991
X-00180000Y-00189764
X-00300401Y-00205003
X-00287701Y-00227000
X-00275002Y-00248997
X-00262302Y-00270994
X-00284298Y-00283694
X-00296999Y-00261697
X-00309699Y-00239700
X-00322398Y-00217703
X-00271598Y-00305691
X-00300401Y00196309
X-00322398Y00209009
X-00180000Y-00037364
Y-00062764
Y-00088164
Y-00113564
Y-00138964
Y-00164364
X-00249601Y00284297
X-00271598Y00296997
X-00284298Y00275000
X-00296999Y00253003
X-00309699Y00231006
X-00287701Y00218306
X-00275002Y00240303
X-00262302Y00262300
T05
X-00113560Y-00233567
X-00360000Y00004653
X-00113560Y00242873
M30
