M48
;Layer_Color=9474304
;FILE_FORMAT=4:3
METRIC
;TYPE=PLATED
T1F00S00C0.300
T2F00S00C0.400
T3F00S00C1.016
T4F00S00C1.100
T5F00S00C3.000
%
T01
X-0002750Y0020750
X0002005Y0016250
X0011600Y0016100
X0012600Y0014100
X0014600
X0016600
X0018600
X0020600
X0022600
X0023600Y0016100
X0025600
X0027600
X0029600
X0031600
X0032600Y0018100
X0030600
X0028600
X0026600
X0027600Y0020100
X0029600
X0031600
X0032600Y0022100
X0030600
X0028600
X0026600
X0025600Y0020100
X0023600
X0021600
X0019600
X0020600Y0022100
X0022600
Y0018100
X0020600
X0018600
X0019600Y0016100
X0021600
Y0012100
X0023600
X0025600
X0027600
X0029600
X0031600
X0032600Y0014100
X0030600
X0028600
X0026600
Y0010100
X0028600
X0030600
X0032600
X0031600Y0008100
X0029600
X0027600
X0025600
X0023600
X0021600
X0019600
X0017600
X0015600
X0013600
X0011600
X0012600Y0010100
X0014600
X0016600
X0018600
X0020600
X0022600
Y0006100
X0020600
X0018600
X0016600
X0014600
X0012600
X0010600
Y0010100
X0011600Y0012100
X0013600
X0015600
X0017600
X0019600
X0020600Y0002100
X0018600
X0016600
X0014600
X0012600
X0010600
X0011600Y0000100
X0013600
X0015600
X0017600
X0019600
X0020600Y-0001900
X0022600
X0024600
X0026600
X0027600Y0000100
X0025600
X0023600
X0024600Y0002100
X0026600
X0028600
X0029600Y0004100
X0027600
X0025600
X0026600Y0006100
X0028600
X0025600Y-0003900
X0023600
X0021600
X0019600
X0017600
X0015600
X0013600
X0014600Y-0001900
X0016600
X0018600
Y-0005900
X0020600
X0022600
X0024600
X0023600Y-0007900
X0021600
X0019600
X0022600Y-0009900
X0016600Y-0005900
X0012600Y-0001900
X0010600
Y0014100
X0014600Y0018100
X0015600Y0020100
X0013600
X0014600Y0022100
X0016600
X0018600
X0010600
X0009600Y0022200
X0010600Y0026100
Y0034100
X0012600
X0011600Y0036100
Y0040100
X0012600Y0042100
X0010600
X0011600Y0044100
X0017600
X0019600
X0020600Y0046100
X0018600
X0016600
X0017600Y0048100
X0019600
X0020600Y0050100
X0026600
X0028600
X0029600Y0052100
X0027600
X0025600
X0026600Y0054100
X0028600
X0027600Y0056100
X0025600
X0026600Y0058100
X0024600
X0025600Y0060100
X0023600
X0021600
X0019600
X0017600
X0015600
X0014600Y0058100
X0012600
X0013600Y0056100
X0011600
X0010600Y0054100
X0024600
Y0062100
X0022600
X0020600
X0018600
Y0042100
X0020600
X0019600Y0040100
X0020600Y0038100
X0018600
X0019600Y0036100
X0023600
X0022600Y0034100
X0023600Y0032100
X0021600
X0022600Y0030100
X0020600
X0018600
X0016600
Y0034100
Y0042100
X0023600Y0044100
X0027600
X0029600
X0031600
X0032600Y0046100
X0030600
X0028600
X0026600
X0027600Y0048100
X0029600
X0030600Y0042100
X0032600
X0031600Y0040100
X0029600
X0027600
X0028600Y0042100
X0026600
Y0038100
X0028600
X0030600
X0032600
X0031600Y0036100
X0029600
X0027600
X0028600Y0034100
X0030600
X0032600
X0031600Y0032100
X0029600
X0027600
X0028600Y0030100
X0030600
X0032600
Y0026100
X0031600Y0024100
X0029600
X0027600
X0025600
X0023600
X0021600
X0019600
X0017600
X0020600Y0026100
X0022600
X0023600Y0028100
X0025600
X0027600
X0026600Y0030100
Y0034100
Y0026100
X0021600Y0028100
X0019600
X0023600Y0040100
X0002000Y0036000
X0002005Y0026000
X-0002450Y0028750
X-0002500Y0029750
X0021600Y0064100
X0023600
T02
X-0004250Y0018500
X0011547Y0021000
X0012449Y0030500
X0011980Y0031750
X0018894Y0032250
X0018396Y0033281
X0024520Y0031520
X-0004000Y0029250
X-0004750Y0042000
T03
X0017500Y0016480
Y0019020
Y0026480
Y0029020
Y0036480
Y0039020
T04
X0021980Y0000978
X0023250Y0003178
X0024520Y0005378
X0023911Y0047166
X0022641Y0049365
X0021371Y0051565
X0020101Y0053765
X0018831Y0055964
X0021031Y0057234
X0022301Y0055035
X0023571Y0052835
X0024841Y0050635
X0026111Y0048436
T05
X0005356Y0003178
X0030000Y0027000
X0005356Y0050822
M30
